<svg width="20" height="20" viewBox="0 0 20 20" fill="none" xmlns="http://www.w3.org/2000/svg">
<path d="M0.999973 12.5488C0.85069 12.5488 0.722065 12.4948 0.614099 12.3868C0.506132 12.2789 0.452148 12.1502 0.452148 12.001C0.452148 11.8517 0.506132 11.723 0.614099 11.6151C0.722065 11.5071 0.85069 11.4531 0.999973 11.4531C1.14926 11.4531 1.27788 11.5071 1.38585 11.6151C1.49382 11.723 1.5478 11.8517 1.5478 12.001C1.5478 12.1502 1.49382 12.2789 1.38585 12.3868C1.27788 12.4948 1.14926 12.5488 0.999973 12.5488ZM0.999973 8.54878C0.85069 8.54878 0.722065 8.49479 0.614099 8.38683C0.506132 8.27886 0.452148 8.15023 0.452148 8.00095C0.452148 7.85167 0.506132 7.72304 0.614099 7.61508C0.722065 7.50711 0.85069 7.45312 0.999973 7.45312C1.14926 7.45312 1.27788 7.50711 1.38585 7.61508C1.49382 7.72304 1.5478 7.85167 1.5478 8.00095C1.5478 8.15023 1.49382 8.27886 1.38585 8.38683C1.27788 8.49479 1.14926 8.54878 0.999973 8.54878ZM3.99997 17.0488C3.70309 17.0488 3.45423 16.9484 3.2534 16.7475C3.05257 16.5467 2.95215 16.2978 2.95215 16.001C2.95215 15.7041 3.05257 15.4552 3.2534 15.2544C3.45423 15.0535 3.70309 14.9531 3.99997 14.9531C4.29686 14.9531 4.54572 15.0535 4.74655 15.2544C4.94738 15.4552 5.0478 15.7041 5.0478 16.001C5.0478 16.2978 4.94738 16.5467 4.74655 16.7475C4.54572 16.9484 4.29686 17.0488 3.99997 17.0488ZM3.99997 13.0488C3.70309 13.0488 3.45423 12.9484 3.2534 12.7475C3.05257 12.5467 2.95215 12.2978 2.95215 12.001C2.95215 11.7041 3.05257 11.4552 3.2534 11.2544C3.45423 11.0535 3.70309 10.9531 3.99997 10.9531C4.29686 10.9531 4.54572 11.0535 4.74655 11.2544C4.94738 11.4552 5.0478 11.7041 5.0478 12.001C5.0478 12.2978 4.94738 12.5467 4.74655 12.7475C4.54572 12.9484 4.29686 13.0488 3.99997 13.0488ZM3.99997 9.04878C3.70309 9.04878 3.45423 8.94836 3.2534 8.74753C3.05257 8.54669 2.95215 8.29783 2.95215 8.00095C2.95215 7.70407 3.05257 7.45521 3.2534 7.25438C3.45423 7.05354 3.70309 6.95312 3.99997 6.95312C4.29686 6.95312 4.54572 7.05354 4.74655 7.25438C4.94738 7.45521 5.0478 7.70407 5.0478 8.00095C5.0478 8.29783 4.94738 8.54669 4.74655 8.74753C4.54572 8.94836 4.29686 9.04878 3.99997 9.04878ZM3.99997 5.04878C3.70309 5.04878 3.45423 4.94836 3.2534 4.74753C3.05257 4.54669 2.95215 4.29783 2.95215 4.00095C2.95215 3.70407 3.05257 3.45521 3.2534 3.25438C3.45423 3.05354 3.70309 2.95312 3.99997 2.95312C4.29686 2.95312 4.54572 3.05354 4.74655 3.25438C4.94738 3.45521 5.0478 3.70407 5.0478 4.00095C5.0478 4.29783 4.94738 4.54669 4.74655 4.74753C4.54572 4.94836 4.29686 5.04878 3.99997 5.04878ZM7.99997 13.5488C7.56736 13.5488 7.20123 13.399 6.9016 13.0993C6.60196 12.7997 6.45215 12.4336 6.45215 12.001C6.45215 11.5683 6.60196 11.2022 6.9016 10.9026C7.20123 10.6029 7.56736 10.4531 7.99997 10.4531C8.43259 10.4531 8.79872 10.6029 9.09835 10.9026C9.39798 11.2022 9.5478 11.5683 9.5478 12.001C9.5478 12.4336 9.39798 12.7997 9.09835 13.0993C8.79872 13.399 8.43259 13.5488 7.99997 13.5488ZM7.99997 9.54878C7.56736 9.54878 7.20123 9.39896 6.9016 9.09933C6.60196 8.79969 6.45215 8.43357 6.45215 8.00095C6.45215 7.56833 6.60196 7.20221 6.9016 6.90258C7.20123 6.60294 7.56736 6.45312 7.99997 6.45312C8.43259 6.45312 8.79872 6.60294 9.09835 6.90258C9.39798 7.20221 9.5478 7.56833 9.5478 8.00095C9.5478 8.43357 9.39798 8.79969 9.09835 9.09933C8.79872 9.39896 8.43259 9.54878 7.99997 9.54878ZM7.99997 17.0488C7.70309 17.0488 7.45423 16.9484 7.2534 16.7475C7.05257 16.5467 6.95215 16.2978 6.95215 16.001C6.95215 15.7041 7.05257 15.4552 7.2534 15.2544C7.45423 15.0535 7.70309 14.9531 7.99997 14.9531C8.29686 14.9531 8.54572 15.0535 8.74655 15.2544C8.94738 15.4552 9.0478 15.7041 9.0478 16.001C9.0478 16.2978 8.94738 16.5467 8.74655 16.7475C8.54572 16.9484 8.29686 17.0488 7.99997 17.0488ZM7.99997 5.04878C7.70309 5.04878 7.45423 4.94836 7.2534 4.74753C7.05257 4.54669 6.95215 4.29783 6.95215 4.00095C6.95215 3.70407 7.05257 3.45521 7.2534 3.25438C7.45423 3.05354 7.70309 2.95312 7.99997 2.95312C8.29686 2.95312 8.54572 3.05354 8.74655 3.25438C8.94738 3.45521 9.0478 3.70407 9.0478 4.00095C9.0478 4.29783 8.94738 4.54669 8.74655 4.74753C8.54572 4.94836 8.29686 5.04878 7.99997 5.04878ZM7.99997 19.5488C7.85069 19.5488 7.72206 19.4948 7.6141 19.3868C7.50613 19.2789 7.45215 19.1502 7.45215 19.001C7.45215 18.8517 7.50613 18.723 7.6141 18.6151C7.72206 18.5071 7.85069 18.4531 7.99997 18.4531C8.14926 18.4531 8.27788 18.5071 8.38585 18.6151C8.49382 18.723 8.5478 18.8517 8.5478 19.001C8.5478 19.1502 8.49382 19.2789 8.38585 19.3868C8.27788 19.4948 8.14926 19.5488 7.99997 19.5488ZM7.99997 1.54878C7.85069 1.54878 7.72206 1.49479 7.6141 1.38683C7.50613 1.27886 7.45215 1.15023 7.45215 1.00095C7.45215 0.851667 7.50613 0.723042 7.6141 0.615076C7.72206 0.507109 7.85069 0.453125 7.99997 0.453125C8.14926 0.453125 8.27788 0.507109 8.38585 0.615076C8.49382 0.723042 8.5478 0.851667 8.5478 1.00095C8.5478 1.15023 8.49382 1.27886 8.38585 1.38683C8.27788 1.49479 8.14926 1.54878 7.99997 1.54878ZM12 13.5488C11.5674 13.5488 11.2012 13.399 10.9016 13.0993C10.602 12.7997 10.4521 12.4336 10.4521 12.001C10.4521 11.5683 10.602 11.2022 10.9016 10.9026C11.2012 10.6029 11.5674 10.4531 12 10.4531C12.4326 10.4531 12.7987 10.6029 13.0983 10.9026C13.398 11.2022 13.5478 11.5683 13.5478 12.001C13.5478 12.4336 13.398 12.7997 13.0983 13.0993C12.7987 13.399 12.4326 13.5488 12 13.5488ZM12 9.54878C11.5674 9.54878 11.2012 9.39896 10.9016 9.09933C10.602 8.79969 10.4521 8.43357 10.4521 8.00095C10.4521 7.56833 10.602 7.20221 10.9016 6.90258C11.2012 6.60294 11.5674 6.45312 12 6.45312C12.4326 6.45312 12.7987 6.60294 13.0983 6.90258C13.398 7.20221 13.5478 7.56833 13.5478 8.00095C13.5478 8.43357 13.398 8.79969 13.0983 9.09933C12.7987 9.39896 12.4326 9.54878 12 9.54878ZM12 17.0488C11.7031 17.0488 11.4542 16.9484 11.2534 16.7475C11.0526 16.5467 10.9521 16.2978 10.9521 16.001C10.9521 15.7041 11.0526 15.4552 11.2534 15.2544C11.4542 15.0535 11.7031 14.9531 12 14.9531C12.2969 14.9531 12.5457 15.0535 12.7465 15.2544C12.9474 15.4552 13.0478 15.7041 13.0478 16.001C13.0478 16.2978 12.9474 16.5467 12.7465 16.7475C12.5457 16.9484 12.2969 17.0488 12 17.0488ZM12 5.04878C11.7031 5.04878 11.4542 4.94836 11.2534 4.74753C11.0526 4.54669 10.9521 4.29783 10.9521 4.00095C10.9521 3.70407 11.0526 3.45521 11.2534 3.25438C11.4542 3.05354 11.7031 2.95312 12 2.95312C12.2969 2.95312 12.5457 3.05354 12.7465 3.25438C12.9474 3.45521 13.0478 3.70407 13.0478 4.00095C13.0478 4.29783 12.9474 4.54669 12.7465 4.74753C12.5457 4.94836 12.2969 5.04878 12 5.04878ZM12 19.5488C11.8507 19.5488 11.7221 19.4948 11.6141 19.3868C11.5061 19.2789 11.4521 19.1502 11.4521 19.001C11.4521 18.8517 11.5061 18.723 11.6141 18.6151C11.7221 18.5071 11.8507 18.4531 12 18.4531C12.1493 18.4531 12.2779 18.5071 12.3858 18.6151C12.4938 18.723 12.5478 18.8517 12.5478 19.001C12.5478 19.1502 12.4938 19.2789 12.3858 19.3868C12.2779 19.4948 12.1493 19.5488 12 19.5488ZM12 1.54878C11.8507 1.54878 11.7221 1.49479 11.6141 1.38683C11.5061 1.27886 11.4521 1.15023 11.4521 1.00095C11.4521 0.851667 11.5061 0.723042 11.6141 0.615076C11.7221 0.507109 11.8507 0.453125 12 0.453125C12.1493 0.453125 12.2779 0.507109 12.3858 0.615076C12.4938 0.723042 12.5478 0.851667 12.5478 1.00095C12.5478 1.15023 12.4938 1.27886 12.3858 1.38683C12.2779 1.49479 12.1493 1.54878 12 1.54878ZM16 17.0488C15.7031 17.0488 15.4542 16.9484 15.2534 16.7475C15.0526 16.5467 14.9521 16.2978 14.9521 16.001C14.9521 15.7041 15.0526 15.4552 15.2534 15.2544C15.4542 15.0535 15.7031 14.9531 16 14.9531C16.2969 14.9531 16.5457 15.0535 16.7465 15.2544C16.9474 15.4552 17.0478 15.7041 17.0478 16.001C17.0478 16.2978 16.9474 16.5467 16.7465 16.7475C16.5457 16.9484 16.2969 17.0488 16 17.0488ZM16 13.0488C15.7031 13.0488 15.4542 12.9484 15.2534 12.7475C15.0526 12.5467 14.9521 12.2978 14.9521 12.001C14.9521 11.7041 15.0526 11.4552 15.2534 11.2544C15.4542 11.0535 15.7031 10.9531 16 10.9531C16.2969 10.9531 16.5457 11.0535 16.7465 11.2544C16.9474 11.4552 17.0478 11.7041 17.0478 12.001C17.0478 12.2978 16.9474 12.5467 16.7465 12.7475C16.5457 12.9484 16.2969 13.0488 16 13.0488ZM16 9.04878C15.7031 9.04878 15.4542 8.94836 15.2534 8.74753C15.0526 8.54669 14.9521 8.29783 14.9521 8.00095C14.9521 7.70407 15.0526 7.45521 15.2534 7.25438C15.4542 7.05354 15.7031 6.95312 16 6.95312C16.2969 6.95312 16.5457 7.05354 16.7465 7.25438C16.9474 7.45521 17.0478 7.70407 17.0478 8.00095C17.0478 8.29783 16.9474 8.54669 16.7465 8.74753C16.5457 8.94836 16.2969 9.04878 16 9.04878ZM16 5.04878C15.7031 5.04878 15.4542 4.94836 15.2534 4.74753C15.0526 4.54669 14.9521 4.29783 14.9521 4.00095C14.9521 3.70407 15.0526 3.45521 15.2534 3.25438C15.4542 3.05354 15.7031 2.95312 16 2.95312C16.2969 2.95312 16.5457 3.05354 16.7465 3.25438C16.9474 3.45521 17.0478 3.70407 17.0478 4.00095C17.0478 4.29783 16.9474 4.54669 16.7465 4.74753C16.5457 4.94836 16.2969 5.04878 16 5.04878ZM19 12.5488C18.8507 12.5488 18.7221 12.4948 18.6141 12.3868C18.5061 12.2789 18.4521 12.1502 18.4521 12.001C18.4521 11.8517 18.5061 11.723 18.6141 11.6151C18.7221 11.5071 18.8507 11.4531 19 11.4531C19.1493 11.4531 19.2779 11.5071 19.3858 11.6151C19.4938 11.723 19.5478 11.8517 19.5478 12.001C19.5478 12.1502 19.4938 12.2789 19.3858 12.3868C19.2779 12.4948 19.1493 12.5488 19 12.5488ZM19 8.54878C18.8507 8.54878 18.7221 8.49479 18.6141 8.38683C18.5061 8.27886 18.4521 8.15023 18.4521 8.00095C18.4521 7.85167 18.5061 7.72304 18.6141 7.61508C18.7221 7.50711 18.8507 7.45312 19 7.45312C19.1493 7.45312 19.2779 7.50711 19.3858 7.61508C19.4938 7.72304 19.5478 7.85167 19.5478 8.00095C19.5478 8.15023 19.4938 8.27886 19.3858 8.38683C19.2779 8.49479 19.1493 8.54878 19 8.54878Z" fill="#1C1B1F"/>
</svg>
