<svg width="20" height="20" viewBox="0 0 20 20" fill="none" xmlns="http://www.w3.org/2000/svg">
<path d="M0.796875 16.9284V3.0719C0.796875 2.44627 1.01964 1.91069 1.46517 1.46517C1.91069 1.01964 2.44627 0.796875 3.0719 0.796875H16.9284C17.554 0.796875 18.0896 1.01964 18.5351 1.46517C18.9807 1.91069 19.2034 2.44627 19.2034 3.0719V16.9284C19.2034 17.554 18.9807 18.0896 18.5351 18.5351C18.0896 18.9807 17.554 19.2034 16.9284 19.2034H3.0719C2.44627 19.2034 1.91069 18.9807 1.46517 18.5351C1.01964 18.0896 0.796875 17.554 0.796875 16.9284ZM11.0001 11.0001V16.9284H16.9284V11.0001H11.0001ZM11.0001 9.00015H16.9284V3.0719H11.0001V9.00015ZM9.00015 9.00015V3.0719H3.0719V9.00015H9.00015ZM9.00015 11.0001H3.0719V16.9284H9.00015V11.0001Z" fill="#1C1B1F"/>
</svg>
