<svg width="200" height="31" viewBox="0 0 200 31" fill="none" xmlns="http://www.w3.org/2000/svg">
<path fill-rule="evenodd" clip-rule="evenodd" d="M181.677 29.9894V1.10938H177.842V29.9894H181.677ZM198.513 13.906C198.631 13.8278 198.742 13.7038 198.846 13.5343L199.687 12.145C198.931 11.4146 198.018 10.8406 196.948 10.4232C195.891 10.0058 194.704 9.79707 193.387 9.79707C192.239 9.79707 191.215 9.96012 190.315 10.2862C189.428 10.5993 188.678 11.0232 188.065 11.5581C187.465 12.0929 187.002 12.7125 186.676 13.4169C186.363 14.1213 186.206 14.8583 186.206 15.6279C186.206 16.4888 186.35 17.2193 186.636 17.8193C186.937 18.4193 187.321 18.9281 187.791 19.3455C188.274 19.7629 188.821 20.1086 189.434 20.3825C190.048 20.6564 190.674 20.8978 191.313 21.1065C191.952 21.3152 192.578 21.5108 193.191 21.6935C193.804 21.8761 194.346 22.0913 194.815 22.3391C195.298 22.587 195.683 22.887 195.97 23.2392C196.27 23.5784 196.42 24.0088 196.42 24.5306C196.42 24.935 196.341 25.3198 196.185 25.685C196.028 26.0503 195.787 26.3764 195.461 26.6633C195.148 26.9373 194.75 27.159 194.267 27.3286C193.785 27.4851 193.217 27.5634 192.565 27.5634C191.782 27.5634 191.13 27.4786 190.608 27.309C190.087 27.1264 189.643 26.9307 189.278 26.722C188.913 26.5003 188.6 26.2981 188.339 26.1155C188.078 25.9329 187.824 25.8415 187.576 25.8415C187.315 25.8415 187.106 25.8937 186.95 25.9981C186.793 26.0894 186.663 26.2263 186.558 26.409L185.658 27.8765C186.441 28.5808 187.413 29.1613 188.574 29.6179C189.734 30.0744 191 30.3027 192.369 30.3027C193.596 30.3027 194.685 30.1396 195.637 29.8135C196.589 29.4874 197.385 29.0374 198.024 28.4634C198.676 27.8895 199.166 27.2112 199.492 26.4285C199.831 25.6328 200 24.7719 200 23.8458C200 23.037 199.85 22.3522 199.55 21.7913C199.263 21.2304 198.879 20.7543 198.396 20.3629C197.926 19.9586 197.385 19.6259 196.772 19.3651C196.172 19.0911 195.552 18.8498 194.913 18.6411C194.287 18.4324 193.667 18.2367 193.054 18.0541C192.454 17.8584 191.913 17.6432 191.43 17.4084C190.961 17.1736 190.576 16.8932 190.276 16.5671C189.989 16.2409 189.845 15.8301 189.845 15.3344C189.845 14.9561 189.93 14.6039 190.1 14.2778C190.269 13.9386 190.511 13.6517 190.824 13.4169C191.137 13.169 191.515 12.9799 191.959 12.8494C192.415 12.7059 192.917 12.6342 193.465 12.6342C194.13 12.6342 194.704 12.7059 195.187 12.8494C195.67 12.9929 196.087 13.1495 196.439 13.319C196.805 13.4886 197.111 13.6451 197.359 13.7886C197.62 13.9321 197.855 14.0039 198.063 14.0039C198.246 14.0039 198.396 13.9712 198.513 13.906ZM163.955 9.79688C165.416 9.79688 166.733 10.0382 167.907 10.5208C169.094 10.9904 170.099 11.6753 170.92 12.5753C171.755 13.4623 172.394 14.5385 172.838 15.8038C173.281 17.056 173.503 18.4648 173.503 20.0301C173.503 21.5954 173.281 23.0107 172.838 24.276C172.394 25.5413 171.755 26.6175 170.92 27.5045C170.099 28.3915 169.094 29.0763 167.907 29.559C166.733 30.0286 165.416 30.2634 163.955 30.2634C162.481 30.2634 161.15 30.0286 159.963 29.559C158.789 29.0763 157.785 28.3915 156.95 27.5045C156.115 26.6175 155.469 25.5413 155.013 24.276C154.569 23.0107 154.348 21.5954 154.348 20.0301C154.348 18.4648 154.569 17.056 155.013 15.8038C155.469 14.5385 156.115 13.4623 156.95 12.5753C157.785 11.6753 158.789 10.9904 159.963 10.5208C161.15 10.0382 162.481 9.79688 163.955 9.79688ZM163.955 27.2893C165.833 27.2893 167.235 26.6566 168.162 25.3913C169.088 24.126 169.551 22.3455 169.551 20.0497C169.551 17.7539 169.088 15.9733 168.162 14.708C167.235 13.4297 165.833 12.7905 163.955 12.7905C162.05 12.7905 160.628 13.4297 159.689 14.708C158.763 15.9733 158.3 17.7539 158.3 20.0497C158.3 22.3455 158.763 24.126 159.689 25.3913C160.628 26.6566 162.05 27.2893 163.955 27.2893ZM145.628 10.521C144.454 10.0384 143.137 9.79707 141.676 9.79707C140.202 9.79707 138.871 10.0384 137.684 10.521C136.51 10.9906 135.506 11.6755 134.671 12.5755C133.836 13.4625 133.19 14.5387 132.734 15.804C132.29 17.0562 132.068 18.465 132.068 20.0303C132.068 21.5956 132.29 23.0109 132.734 24.2762C133.19 25.5415 133.836 26.6177 134.671 27.5047C135.506 28.3917 136.51 29.0765 137.684 29.5592C138.871 30.0288 140.202 30.2636 141.676 30.2636C143.137 30.2636 144.454 30.0288 145.628 29.5592C146.815 29.0765 147.819 28.3917 148.641 27.5047C149.476 26.6177 150.115 25.5415 150.559 24.2762C151.002 23.0109 151.224 21.5956 151.224 20.0303C151.224 18.465 151.002 17.0562 150.559 15.804C150.115 14.5387 149.476 13.4625 148.641 12.5755C147.819 11.6755 146.815 10.9906 145.628 10.521ZM145.882 25.3915C144.956 26.6568 143.554 27.2895 141.676 27.2895C139.771 27.2895 138.349 26.6568 137.41 25.3915C136.484 24.1262 136.021 22.3457 136.021 20.0499C136.021 17.7541 136.484 15.9735 137.41 14.7082C138.349 13.4299 139.771 12.7907 141.676 12.7907C143.554 12.7907 144.956 13.4299 145.882 14.7082C146.808 15.9735 147.272 17.7541 147.272 20.0499C147.272 22.3457 146.808 24.1262 145.882 25.3915ZM125.362 30.3027C123.758 30.3027 122.518 29.8526 121.644 28.9526C120.784 28.0525 120.353 26.7677 120.353 25.098V13.2016H118.044C117.822 13.2016 117.633 13.1364 117.477 13.006C117.333 12.8625 117.262 12.6538 117.262 12.3798V10.8341L120.49 10.3841L121.351 4.45543C121.403 4.23367 121.501 4.0641 121.644 3.9467C121.801 3.81625 121.997 3.75103 122.231 3.75103H124.169V10.4232H129.804V13.2016H124.169V24.8436C124.169 25.6263 124.358 26.2133 124.736 26.6046C125.127 26.9829 125.623 27.172 126.223 27.172C126.575 27.172 126.875 27.1264 127.123 27.0351C127.384 26.9438 127.606 26.8459 127.788 26.7416C127.971 26.6242 128.127 26.5198 128.258 26.4285C128.388 26.3372 128.506 26.2916 128.61 26.2916C128.741 26.2916 128.838 26.3242 128.904 26.3894C128.982 26.4416 129.06 26.5329 129.138 26.6633L130.273 28.5026C129.647 29.0765 128.904 29.52 128.043 29.8331C127.182 30.1461 126.288 30.3027 125.362 30.3027ZM109.461 26.7021C109.331 27.0151 109.266 27.3478 109.266 27.7C109.266 28.0652 109.331 28.4043 109.461 28.7174C109.592 29.0305 109.768 29.3044 109.99 29.5392C110.224 29.774 110.498 29.9566 110.811 30.0871C111.124 30.2175 111.464 30.2827 111.829 30.2827C112.181 30.2827 112.514 30.2175 112.827 30.0871C113.14 29.9566 113.414 29.774 113.648 29.5392C113.883 29.3044 114.066 29.0305 114.196 28.7174C114.34 28.4043 114.412 28.0652 114.412 27.7C114.412 27.3478 114.34 27.0151 114.196 26.7021C114.066 26.389 113.883 26.1151 113.648 25.8803C113.414 25.6455 113.14 25.4629 112.827 25.3324C112.514 25.1889 112.181 25.1172 111.829 25.1172C111.464 25.1172 111.124 25.1889 110.811 25.3324C110.498 25.4629 110.224 25.6455 109.99 25.8803C109.768 26.1151 109.592 26.389 109.461 26.7021Z" fill="white"/>
<path fill-rule="evenodd" clip-rule="evenodd" d="M11.8181 14.0827C12.3529 14.2783 12.8486 14.6305 13.3052 15.1392V23.7289C13.0443 24.042 12.7769 24.3224 12.5029 24.5703C12.2421 24.8051 11.9616 25.0007 11.6616 25.1573C11.3616 25.3138 11.0289 25.4377 10.6637 25.529C10.3115 25.6073 9.91366 25.6464 9.47015 25.6464C8.98751 25.6464 8.55053 25.5486 8.1592 25.3529C7.76787 25.1573 7.42872 24.8377 7.14175 24.3942C6.86782 23.9376 6.65259 23.3441 6.49605 22.6136C6.33952 21.8831 6.26126 20.9831 6.26126 19.9135C6.26126 18.8047 6.35909 17.859 6.55475 17.0763C6.75042 16.2937 7.01783 15.661 7.35698 15.1784C7.70917 14.6827 8.12007 14.324 8.58966 14.1022C9.05926 13.8805 9.57451 13.7696 10.1354 13.7696C10.7224 13.7696 11.2833 13.8739 11.8181 14.0827ZM19.3708 29.9902V0.699219H13.3052V10.9716C12.7182 10.4629 12.066 10.0585 11.3485 9.75848C10.6311 9.45846 9.74408 9.30845 8.68749 9.30845C7.39611 9.30845 6.2156 9.57586 5.14597 10.1107C4.07634 10.6455 3.15672 11.389 2.3871 12.3412C1.63054 13.2804 1.04354 14.4022 0.626126 15.7067C0.208709 16.9981 0 18.4003 0 19.9135C0 21.557 0.18262 23.0245 0.54786 24.3159C0.926144 25.5942 1.44139 26.6769 2.09361 27.5639C2.74582 28.4509 3.52196 29.1292 4.42201 29.5988C5.32207 30.0684 6.30039 30.3032 7.35698 30.3032C8.04832 30.3032 8.68749 30.2315 9.27449 30.088C9.87452 29.9576 10.4289 29.7684 10.9376 29.5206C11.4594 29.2597 11.942 28.9531 12.3855 28.6009C12.8291 28.2488 13.253 27.8574 13.6574 27.427L14.127 28.9727C14.3618 29.651 14.8574 29.9902 15.614 29.9902H19.3708ZM104.558 29.9903H98.7276C98.2972 29.9903 97.945 29.886 97.6711 29.6773C97.4102 29.4686 97.2015 29.2207 97.0449 28.9337L93.4251 22.7116C93.3599 22.9334 93.2817 23.1421 93.1903 23.3377C93.099 23.5334 93.0012 23.716 92.8969 23.8856L89.9228 28.9337C89.7401 29.1946 89.5249 29.4359 89.2771 29.6577C89.0292 29.8795 88.7096 29.9903 88.3183 29.9903H82.918L89.7271 19.5027L83.1919 9.69994H89.0227C89.4532 9.69994 89.7662 9.75864 89.9619 9.87604C90.1706 9.98039 90.3532 10.163 90.5097 10.4239L94.1295 16.4308C94.2078 16.196 94.3056 15.9677 94.423 15.746C94.5404 15.5112 94.6709 15.2764 94.8144 15.0416L99.9124 4.90968C100.095 4.62271 100.284 4.414 100.48 4.28355C100.689 4.15311 100.943 4.08789 101.243 4.08789H106.8L97.7493 19.2288L104.558 29.9903ZM77.0168 17.409C77.0168 16.9263 76.9516 16.4567 76.8212 16.0002C76.7038 15.5436 76.5016 15.1392 76.2146 14.7871C75.9407 14.4218 75.5754 14.1283 75.1189 13.9066C74.6623 13.6848 74.1079 13.5739 73.4557 13.5739C72.3078 13.5739 71.4078 13.9066 70.7556 14.5718C70.1033 15.224 69.6729 16.1697 69.4642 17.409H77.0168ZM69.3859 20.9309C69.5816 22.6267 70.0968 23.8594 70.9317 24.629C71.7665 25.3855 72.8426 25.7638 74.1601 25.7638C74.8645 25.7638 75.4711 25.679 75.9798 25.5095C76.4885 25.3399 76.9386 25.1507 77.3299 24.942C77.7343 24.7333 78.0995 24.5442 78.4256 24.3746C78.7647 24.205 79.1169 24.1202 79.4822 24.1202C79.9648 24.1202 80.3301 24.2963 80.5779 24.6485L82.3389 26.8204C81.7128 27.5378 81.0345 28.1248 80.304 28.5814C79.5865 29.0249 78.843 29.3771 78.0734 29.638C77.3168 29.8858 76.5537 30.0554 75.7841 30.1467C75.0276 30.2511 74.3036 30.3032 73.6123 30.3032C72.1904 30.3032 70.8534 30.075 69.6011 29.6184C68.3619 29.1488 67.2727 28.4575 66.3335 27.5444C65.4074 26.6313 64.6704 25.4964 64.1225 24.1398C63.5877 22.7832 63.3203 21.2048 63.3203 19.4047C63.3203 18.0481 63.5486 16.7633 64.0051 15.5501C64.4747 14.337 65.14 13.2739 66.0009 12.3608C66.8749 11.4477 67.9249 10.7238 69.1511 10.1889C70.3903 9.65413 71.7861 9.38672 73.3383 9.38672C74.6819 9.38672 75.9081 9.59543 77.0168 10.0128C78.1386 10.4303 79.0974 11.0368 79.8931 11.8325C80.7018 12.6282 81.3279 13.6065 81.7715 14.7675C82.228 15.9154 82.4563 17.2198 82.4563 18.6808C82.4563 19.1373 82.4367 19.5091 82.3976 19.7961C82.3585 20.083 82.2867 20.3113 82.1824 20.4809C82.078 20.6505 81.9345 20.7679 81.7519 20.8331C81.5823 20.8983 81.3606 20.9309 81.0866 20.9309H69.3859ZM55.2409 29.9906L63.1066 9.7002H58.2932C57.9019 9.7002 57.5627 9.80455 57.2758 10.0133C56.9888 10.2089 56.7931 10.4568 56.6888 10.7568L53.7538 19.8552C53.2451 21.3031 52.8472 22.7314 52.5603 24.1402C52.4168 23.4358 52.2472 22.7314 52.0515 22.027C51.8689 21.3227 51.6537 20.5987 51.4058 19.8552L48.5883 10.7568C48.4839 10.4568 48.2817 10.2089 47.9817 10.0133C47.6947 9.80455 47.336 9.7002 46.9056 9.7002H41.8574L49.7231 29.9906H55.2409ZM36.0891 17.4092C36.0891 16.9265 36.0239 16.4569 35.8934 16.0004C35.776 15.5438 35.5738 15.1394 35.2869 14.7873C35.0129 14.422 34.6477 14.1285 34.1912 13.9068C33.7346 13.685 33.1802 13.5741 32.528 13.5741C31.3801 13.5741 30.4801 13.9068 29.8278 14.572C29.1756 15.2242 28.7452 16.1699 28.5365 17.4092H36.0891ZM28.4582 20.9311C28.6539 22.6269 29.1691 23.8596 30.0039 24.6292C30.8388 25.3857 31.9149 25.764 33.2324 25.764C33.9368 25.764 34.5433 25.6792 35.0521 25.5097C35.5608 25.3401 36.0108 25.1509 36.4022 24.9422C36.8065 24.7335 37.1718 24.5444 37.4979 24.3748C37.837 24.2052 38.1892 24.1204 38.5545 24.1204C39.0371 24.1204 39.4023 24.2965 39.6502 24.6487L41.4112 26.8206C40.785 27.538 40.1067 28.125 39.3763 28.5816C38.6588 29.0251 37.9153 29.3773 37.1457 29.6382C36.3891 29.886 35.626 30.0556 34.8564 30.1469C34.0998 30.2513 33.3759 30.3034 32.6845 30.3034C31.2627 30.3034 29.9257 30.0752 28.6734 29.6186C27.4342 29.149 26.345 28.4577 25.4058 27.5446C24.4797 26.6315 23.7427 25.4966 23.1948 24.14C22.66 22.7834 22.3926 21.205 22.3926 19.4049C22.3926 18.0483 22.6209 16.7635 23.0774 15.5503C23.547 14.3372 24.2123 13.2741 25.0732 12.361C25.9472 11.4479 26.9972 10.724 28.2234 10.1891C29.4626 9.65432 30.8583 9.38692 32.4106 9.38692C33.7542 9.38692 34.9803 9.59562 36.0891 10.013C37.2109 10.4305 38.1697 11.037 38.9654 11.8327C39.7741 12.6284 40.4002 13.6067 40.8437 14.7677C41.3003 15.9156 41.5286 17.22 41.5286 18.681C41.5286 19.1375 41.509 19.5093 41.4699 19.7963C41.4307 20.0832 41.359 20.3115 41.2546 20.4811C41.1503 20.6507 41.0068 20.7681 40.8242 20.8333C40.6546 20.8985 40.4328 20.9311 40.1589 20.9311H28.4582Z" fill="white"/>
<path fill-rule="evenodd" clip-rule="evenodd" d="M11.8181 14.0827C12.3529 14.2783 12.8486 14.6305 13.3052 15.1392V23.7289C13.0443 24.042 12.7769 24.3224 12.5029 24.5703C12.2421 24.8051 11.9616 25.0007 11.6616 25.1573C11.3616 25.3138 11.0289 25.4377 10.6637 25.529C10.3115 25.6073 9.91366 25.6464 9.47015 25.6464C8.98751 25.6464 8.55053 25.5486 8.1592 25.3529C7.76787 25.1573 7.42872 24.8377 7.14175 24.3942C6.86782 23.9376 6.65259 23.3441 6.49605 22.6136C6.33952 21.8831 6.26126 20.9831 6.26126 19.9135C6.26126 18.8047 6.35909 17.859 6.55475 17.0763C6.75042 16.2937 7.01783 15.661 7.35698 15.1784C7.70917 14.6827 8.12007 14.324 8.58966 14.1022C9.05926 13.8805 9.57451 13.7696 10.1354 13.7696C10.7224 13.7696 11.2833 13.8739 11.8181 14.0827ZM19.3708 29.9902V0.699219H13.3052V10.9716C12.7182 10.4629 12.066 10.0585 11.3485 9.75848C10.6311 9.45846 9.74408 9.30845 8.68749 9.30845C7.39611 9.30845 6.2156 9.57586 5.14597 10.1107C4.07634 10.6455 3.15672 11.389 2.3871 12.3412C1.63054 13.2804 1.04354 14.4022 0.626126 15.7067C0.208709 16.9981 0 18.4003 0 19.9135C0 21.557 0.18262 23.0245 0.54786 24.3159C0.926144 25.5942 1.44139 26.6769 2.09361 27.5639C2.74582 28.4509 3.52196 29.1292 4.42201 29.5988C5.32207 30.0684 6.30039 30.3032 7.35698 30.3032C8.04832 30.3032 8.68749 30.2315 9.27449 30.088C9.87452 29.9576 10.4289 29.7684 10.9376 29.5206C11.4594 29.2597 11.942 28.9531 12.3855 28.6009C12.8291 28.2488 13.253 27.8574 13.6574 27.427L14.127 28.9727C14.3618 29.651 14.8574 29.9902 15.614 29.9902H19.3708ZM104.558 29.9903H98.7276C98.2972 29.9903 97.945 29.886 97.6711 29.6773C97.4102 29.4686 97.2015 29.2207 97.0449 28.9337L93.4251 22.7116C93.3599 22.9334 93.2817 23.1421 93.1903 23.3377C93.099 23.5334 93.0012 23.716 92.8969 23.8856L89.9228 28.9337C89.7401 29.1946 89.5249 29.4359 89.2771 29.6577C89.0292 29.8795 88.7096 29.9903 88.3183 29.9903H82.918L89.7271 19.5027L83.1919 9.69994H89.0227C89.4532 9.69994 89.7662 9.75864 89.9619 9.87604C90.1706 9.98039 90.3532 10.163 90.5097 10.4239L94.1295 16.4308C94.2078 16.196 94.3056 15.9677 94.423 15.746C94.5404 15.5112 94.6709 15.2764 94.8144 15.0416L99.9124 4.90968C100.095 4.62271 100.284 4.414 100.48 4.28355C100.689 4.15311 100.943 4.08789 101.243 4.08789H106.8L97.7493 19.2288L104.558 29.9903ZM77.0168 17.409C77.0168 16.9263 76.9516 16.4567 76.8212 16.0002C76.7038 15.5436 76.5016 15.1392 76.2146 14.7871C75.9407 14.4218 75.5754 14.1283 75.1189 13.9066C74.6623 13.6848 74.1079 13.5739 73.4557 13.5739C72.3078 13.5739 71.4078 13.9066 70.7556 14.5718C70.1033 15.224 69.6729 16.1697 69.4642 17.409H77.0168ZM69.3859 20.9309C69.5816 22.6267 70.0968 23.8594 70.9317 24.629C71.7665 25.3855 72.8426 25.7638 74.1601 25.7638C74.8645 25.7638 75.4711 25.679 75.9798 25.5095C76.4885 25.3399 76.9386 25.1507 77.3299 24.942C77.7343 24.7333 78.0995 24.5442 78.4256 24.3746C78.7647 24.205 79.1169 24.1202 79.4822 24.1202C79.9648 24.1202 80.3301 24.2963 80.5779 24.6485L82.3389 26.8204C81.7128 27.5378 81.0345 28.1248 80.304 28.5814C79.5865 29.0249 78.843 29.3771 78.0734 29.638C77.3168 29.8858 76.5537 30.0554 75.7841 30.1467C75.0276 30.2511 74.3036 30.3032 73.6123 30.3032C72.1904 30.3032 70.8534 30.075 69.6011 29.6184C68.3619 29.1488 67.2727 28.4575 66.3335 27.5444C65.4074 26.6313 64.6704 25.4964 64.1225 24.1398C63.5877 22.7832 63.3203 21.2048 63.3203 19.4047C63.3203 18.0481 63.5486 16.7633 64.0051 15.5501C64.4747 14.337 65.14 13.2739 66.0009 12.3608C66.8749 11.4477 67.9249 10.7238 69.1511 10.1889C70.3903 9.65413 71.7861 9.38672 73.3383 9.38672C74.6819 9.38672 75.9081 9.59543 77.0168 10.0128C78.1386 10.4303 79.0974 11.0368 79.8931 11.8325C80.7018 12.6282 81.3279 13.6065 81.7715 14.7675C82.228 15.9154 82.4563 17.2198 82.4563 18.6808C82.4563 19.1373 82.4367 19.5091 82.3976 19.7961C82.3585 20.083 82.2867 20.3113 82.1824 20.4809C82.078 20.6505 81.9345 20.7679 81.7519 20.8331C81.5823 20.8983 81.3606 20.9309 81.0866 20.9309H69.3859ZM55.2409 29.9906L63.1066 9.7002H58.2932C57.9019 9.7002 57.5627 9.80455 57.2758 10.0133C56.9888 10.2089 56.7931 10.4568 56.6888 10.7568L53.7538 19.8552C53.2451 21.3031 52.8472 22.7314 52.5603 24.1402C52.4168 23.4358 52.2472 22.7314 52.0515 22.027C51.8689 21.3227 51.6537 20.5987 51.4058 19.8552L48.5883 10.7568C48.4839 10.4568 48.2817 10.2089 47.9817 10.0133C47.6947 9.80455 47.336 9.7002 46.9056 9.7002H41.8574L49.7231 29.9906H55.2409ZM36.0891 17.4092C36.0891 16.9265 36.0239 16.4569 35.8934 16.0004C35.776 15.5438 35.5738 15.1394 35.2869 14.7873C35.0129 14.422 34.6477 14.1285 34.1912 13.9068C33.7346 13.685 33.1802 13.5741 32.528 13.5741C31.3801 13.5741 30.4801 13.9068 29.8278 14.572C29.1756 15.2242 28.7452 16.1699 28.5365 17.4092H36.0891ZM28.4582 20.9311C28.6539 22.6269 29.1691 23.8596 30.0039 24.6292C30.8388 25.3857 31.9149 25.764 33.2324 25.764C33.9368 25.764 34.5433 25.6792 35.0521 25.5097C35.5608 25.3401 36.0108 25.1509 36.4022 24.9422C36.8065 24.7335 37.1718 24.5444 37.4979 24.3748C37.837 24.2052 38.1892 24.1204 38.5545 24.1204C39.0371 24.1204 39.4023 24.2965 39.6502 24.6487L41.4112 26.8206C40.785 27.538 40.1067 28.125 39.3763 28.5816C38.6588 29.0251 37.9153 29.3773 37.1457 29.6382C36.3891 29.886 35.626 30.0556 34.8564 30.1469C34.0998 30.2513 33.3759 30.3034 32.6845 30.3034C31.2627 30.3034 29.9257 30.0752 28.6734 29.6186C27.4342 29.149 26.345 28.4577 25.4058 27.5446C24.4797 26.6315 23.7427 25.4966 23.1948 24.14C22.66 22.7834 22.3926 21.205 22.3926 19.4049C22.3926 18.0483 22.6209 16.7635 23.0774 15.5503C23.547 14.3372 24.2123 13.2741 25.0732 12.361C25.9472 11.4479 26.9972 10.724 28.2234 10.1891C29.4626 9.65432 30.8583 9.38692 32.4106 9.38692C33.7542 9.38692 34.9803 9.59562 36.0891 10.013C37.2109 10.4305 38.1697 11.037 38.9654 11.8327C39.7741 12.6284 40.4002 13.6067 40.8437 14.7677C41.3003 15.9156 41.5286 17.22 41.5286 18.681C41.5286 19.1375 41.509 19.5093 41.4699 19.7963C41.4307 20.0832 41.359 20.3115 41.2546 20.4811C41.1503 20.6507 41.0068 20.7681 40.8242 20.8333C40.6546 20.8985 40.4328 20.9311 40.1589 20.9311H28.4582Z" fill="white"/>
</svg>
