<svg width="244" height="36" viewBox="0 0 244 36" fill="none" xmlns="http://www.w3.org/2000/svg">
<path d="M241.805 15.611C241.679 15.8172 241.544 15.9679 241.401 16.0631C241.258 16.1424 241.076 16.182 240.854 16.182C240.6 16.182 240.314 16.0948 239.997 15.9203C239.696 15.7458 239.323 15.5555 238.879 15.3493C238.451 15.143 237.943 14.9527 237.356 14.7782C236.769 14.6037 236.071 14.5165 235.262 14.5165C234.596 14.5165 233.985 14.6037 233.43 14.7782C232.891 14.9368 232.431 15.1668 232.05 15.4682C231.669 15.7538 231.376 16.1027 231.17 16.5151C230.963 16.9117 230.86 17.34 230.86 17.8C230.86 18.4028 231.035 18.9024 231.384 19.299C231.749 19.6956 232.217 20.0366 232.788 20.3221C233.375 20.6077 234.033 20.8694 234.763 21.1073C235.508 21.3294 236.262 21.5673 237.023 21.8211C237.8 22.0749 238.554 22.3684 239.283 22.7015C240.029 23.0187 240.687 23.4232 241.258 23.915C241.845 24.3908 242.313 24.9698 242.662 25.6519C243.027 26.334 243.209 27.1668 243.209 28.1502C243.209 29.2765 243.003 30.3234 242.591 31.291C242.194 32.2427 241.599 33.0676 240.806 33.7655C240.029 34.4635 239.061 35.0107 237.903 35.4073C236.745 35.8038 235.421 36.0021 233.93 36.0021C232.264 36.0021 230.726 35.7245 229.314 35.1693C227.902 34.6142 226.72 33.9083 225.769 33.0517L226.863 31.2672C226.99 31.0451 227.149 30.8786 227.339 30.7675C227.529 30.6406 227.783 30.5772 228.1 30.5772C228.402 30.5772 228.711 30.6882 229.028 30.9103C229.346 31.1324 229.726 31.3782 230.17 31.6479C230.615 31.9017 231.154 32.1396 231.788 32.3617C232.423 32.5679 233.216 32.671 234.168 32.671C234.961 32.671 235.651 32.5758 236.238 32.3855C236.825 32.1793 237.308 31.9096 237.689 31.5765C238.086 31.2275 238.379 30.831 238.57 30.3868C238.76 29.9427 238.855 29.4747 238.855 28.983C238.855 28.3485 238.673 27.8251 238.308 27.4126C237.959 26.9843 237.491 26.6195 236.904 26.3181C236.333 26.0167 235.675 25.755 234.929 25.5329C234.184 25.3109 233.422 25.0729 232.645 24.8191C231.868 24.5653 231.106 24.2719 230.361 23.9388C229.615 23.6056 228.949 23.1853 228.362 22.6777C227.791 22.1701 227.323 21.5515 226.958 20.8218C226.609 20.0921 226.435 19.2038 226.435 18.1569C226.435 17.221 226.625 16.3248 227.006 15.4682C227.402 14.6117 227.965 13.8582 228.695 13.2078C229.441 12.5575 230.353 12.0419 231.431 11.6612C232.526 11.2647 233.771 11.0664 235.167 11.0664C236.769 11.0664 238.213 11.3202 239.497 11.8278C240.798 12.3354 241.909 13.0333 242.829 13.9216L241.805 15.611Z" fill="#222222"/>
<path d="M241.805 15.611C241.679 15.8172 241.544 15.9679 241.401 16.0631C241.258 16.1424 241.076 16.182 240.854 16.182C240.6 16.182 240.314 16.0948 239.997 15.9203C239.696 15.7458 239.323 15.5555 238.879 15.3493C238.451 15.143 237.943 14.9527 237.356 14.7782C236.769 14.6037 236.071 14.5165 235.262 14.5165C234.596 14.5165 233.985 14.6037 233.43 14.7782C232.891 14.9368 232.431 15.1668 232.05 15.4682C231.669 15.7538 231.376 16.1027 231.17 16.5151C230.963 16.9117 230.86 17.34 230.86 17.8C230.86 18.4028 231.035 18.9024 231.384 19.299C231.749 19.6956 232.217 20.0366 232.788 20.3221C233.375 20.6077 234.033 20.8694 234.763 21.1073C235.508 21.3294 236.262 21.5673 237.023 21.8211C237.8 22.0749 238.554 22.3684 239.283 22.7015C240.029 23.0187 240.687 23.4232 241.258 23.915C241.845 24.3908 242.313 24.9698 242.662 25.6519C243.027 26.334 243.209 27.1668 243.209 28.1502C243.209 29.2765 243.003 30.3234 242.591 31.291C242.194 32.2427 241.599 33.0676 240.806 33.7655C240.029 34.4635 239.061 35.0107 237.903 35.4073C236.745 35.8038 235.421 36.0021 233.93 36.0021C232.264 36.0021 230.726 35.7245 229.314 35.1693C227.902 34.6142 226.72 33.9083 225.769 33.0517L226.863 31.2672C226.99 31.0451 227.149 30.8786 227.339 30.7675C227.529 30.6406 227.783 30.5772 228.1 30.5772C228.402 30.5772 228.711 30.6882 229.028 30.9103C229.346 31.1324 229.726 31.3782 230.17 31.6479C230.615 31.9017 231.154 32.1396 231.788 32.3617C232.423 32.5679 233.216 32.671 234.168 32.671C234.961 32.671 235.651 32.5758 236.238 32.3855C236.825 32.1793 237.308 31.9096 237.689 31.5765C238.086 31.2275 238.379 30.831 238.57 30.3868C238.76 29.9427 238.855 29.4747 238.855 28.983C238.855 28.3485 238.673 27.8251 238.308 27.4126C237.959 26.9843 237.491 26.6195 236.904 26.3181C236.333 26.0167 235.675 25.755 234.929 25.5329C234.184 25.3109 233.422 25.0729 232.645 24.8191C231.868 24.5653 231.106 24.2719 230.361 23.9388C229.615 23.6056 228.949 23.1853 228.362 22.6777C227.791 22.1701 227.323 21.5515 226.958 20.8218C226.609 20.0921 226.435 19.2038 226.435 18.1569C226.435 17.221 226.625 16.3248 227.006 15.4682C227.402 14.6117 227.965 13.8582 228.695 13.2078C229.441 12.5575 230.353 12.0419 231.431 11.6612C232.526 11.2647 233.771 11.0664 235.167 11.0664C236.769 11.0664 238.213 11.3202 239.497 11.8278C240.798 12.3354 241.909 13.0333 242.829 13.9216L241.805 15.611Z" fill="url(#paint0_linear_1702_6487)" fill-opacity="0.05"/>
<path d="M220.924 0.5V35.6194H216.261V0.5H220.924Z" fill="#222222"/>
<path d="M220.924 0.5V35.6194H216.261V0.5H220.924Z" fill="url(#paint1_linear_1702_6487)" fill-opacity="0.05"/>
<path d="M199.375 11.0664C201.152 11.0664 202.754 11.3599 204.181 11.9468C205.625 12.5178 206.846 13.3506 207.846 14.4451C208.861 15.5237 209.638 16.8324 210.177 18.371C210.717 19.8938 210.986 21.607 210.986 23.5105C210.986 25.414 210.717 27.135 210.177 28.6737C209.638 30.2123 208.861 31.521 207.846 32.5996C206.846 33.6783 205.625 34.5111 204.181 35.098C202.754 35.669 201.152 35.9545 199.375 35.9545C197.583 35.9545 195.965 35.669 194.521 35.098C193.094 34.5111 191.872 33.6783 190.857 32.5996C189.842 31.521 189.057 30.2123 188.501 28.6737C187.962 27.135 187.692 25.414 187.692 23.5105C187.692 21.607 187.962 19.8938 188.501 18.371C189.057 16.8324 189.842 15.5237 190.857 14.4451C191.872 13.3506 193.094 12.5178 194.521 11.9468C195.965 11.3599 197.583 11.0664 199.375 11.0664ZM199.375 32.3379C201.659 32.3379 203.364 31.5686 204.491 30.0299C205.617 28.4913 206.18 26.326 206.18 23.5343C206.18 20.7425 205.617 18.5773 204.491 17.0386C203.364 15.4841 201.659 14.7068 199.375 14.7068C197.059 14.7068 195.33 15.4841 194.188 17.0386C193.062 18.5773 192.499 20.7425 192.499 23.5343C192.499 26.326 193.062 28.4913 194.188 30.0299C195.33 31.5686 197.059 32.3379 199.375 32.3379Z" fill="#222222"/>
<path d="M199.375 11.0664C201.152 11.0664 202.754 11.3599 204.181 11.9468C205.625 12.5178 206.846 13.3506 207.846 14.4451C208.861 15.5237 209.638 16.8324 210.177 18.371C210.717 19.8938 210.986 21.607 210.986 23.5105C210.986 25.414 210.717 27.135 210.177 28.6737C209.638 30.2123 208.861 31.521 207.846 32.5996C206.846 33.6783 205.625 34.5111 204.181 35.098C202.754 35.669 201.152 35.9545 199.375 35.9545C197.583 35.9545 195.965 35.669 194.521 35.098C193.094 34.5111 191.872 33.6783 190.857 32.5996C189.842 31.521 189.057 30.2123 188.501 28.6737C187.962 27.135 187.692 25.414 187.692 23.5105C187.692 21.607 187.962 19.8938 188.501 18.371C189.057 16.8324 189.842 15.5237 190.857 14.4451C191.872 13.3506 193.094 12.5178 194.521 11.9468C195.965 11.3599 197.583 11.0664 199.375 11.0664ZM199.375 32.3379C201.659 32.3379 203.364 31.5686 204.491 30.0299C205.617 28.4913 206.18 26.326 206.18 23.5343C206.18 20.7425 205.617 18.5773 204.491 17.0386C203.364 15.4841 201.659 14.7068 199.375 14.7068C197.059 14.7068 195.33 15.4841 194.188 17.0386C193.062 18.5773 192.499 20.7425 192.499 23.5343C192.499 26.326 193.062 28.4913 194.188 30.0299C195.33 31.5686 197.059 32.3379 199.375 32.3379Z" fill="url(#paint2_linear_1702_6487)" fill-opacity="0.05"/>
<path d="M172.282 11.0664C174.059 11.0664 175.661 11.3599 177.089 11.9468C178.532 12.5178 179.753 13.3506 180.753 14.4451C181.768 15.5237 182.545 16.8324 183.085 18.371C183.624 19.8938 183.894 21.607 183.894 23.5105C183.894 25.414 183.624 27.135 183.085 28.6737C182.545 30.2123 181.768 31.521 180.753 32.5996C179.753 33.6783 178.532 34.5111 177.089 35.098C175.661 35.669 174.059 35.9545 172.282 35.9545C170.49 35.9545 168.872 35.669 167.428 35.098C166.001 34.5111 164.779 33.6783 163.764 32.5996C162.749 31.521 161.964 30.2123 161.409 28.6737C160.869 27.135 160.6 25.414 160.6 23.5105C160.6 21.607 160.869 19.8938 161.409 18.371C161.964 16.8324 162.749 15.5237 163.764 14.4451C164.779 13.3506 166.001 12.5178 167.428 11.9468C168.872 11.3599 170.49 11.0664 172.282 11.0664ZM172.282 32.3379C174.566 32.3379 176.272 31.5686 177.398 30.0299C178.524 28.4913 179.087 26.326 179.087 23.5343C179.087 20.7425 178.524 18.5773 177.398 17.0386C176.272 15.4841 174.566 14.7068 172.282 14.7068C169.966 14.7068 168.237 15.4841 167.095 17.0386C165.969 18.5773 165.406 20.7425 165.406 23.5343C165.406 26.326 165.969 28.4913 167.095 30.0299C168.237 31.5686 169.966 32.3379 172.282 32.3379Z" fill="#222222"/>
<path d="M172.282 11.0664C174.059 11.0664 175.661 11.3599 177.089 11.9468C178.532 12.5178 179.753 13.3506 180.753 14.4451C181.768 15.5237 182.545 16.8324 183.085 18.371C183.624 19.8938 183.894 21.607 183.894 23.5105C183.894 25.414 183.624 27.135 183.085 28.6737C182.545 30.2123 181.768 31.521 180.753 32.5996C179.753 33.6783 178.532 34.5111 177.089 35.098C175.661 35.669 174.059 35.9545 172.282 35.9545C170.49 35.9545 168.872 35.669 167.428 35.098C166.001 34.5111 164.779 33.6783 163.764 32.5996C162.749 31.521 161.964 30.2123 161.409 28.6737C160.869 27.135 160.6 25.414 160.6 23.5105C160.6 21.607 160.869 19.8938 161.409 18.371C161.964 16.8324 162.749 15.5237 163.764 14.4451C164.779 13.3506 166.001 12.5178 167.428 11.9468C168.872 11.3599 170.49 11.0664 172.282 11.0664ZM172.282 32.3379C174.566 32.3379 176.272 31.5686 177.398 30.0299C178.524 28.4913 179.087 26.326 179.087 23.5343C179.087 20.7425 178.524 18.5773 177.398 17.0386C176.272 15.4841 174.566 14.7068 172.282 14.7068C169.966 14.7068 168.237 15.4841 167.095 17.0386C165.969 18.5773 165.406 20.7425 165.406 23.5343C165.406 26.326 165.969 28.4913 167.095 30.0299C168.237 31.5686 169.966 32.3379 172.282 32.3379Z" fill="url(#paint3_linear_1702_6487)" fill-opacity="0.05"/>
<path d="M152.445 35.9989C150.494 35.9989 148.987 35.4516 147.925 34.3571C146.878 33.2626 146.354 31.7002 146.354 29.6698V15.2033H143.546C143.277 15.2033 143.047 15.1239 142.856 14.9653C142.682 14.7908 142.595 14.537 142.595 14.2039V12.3242L146.521 11.777L147.568 4.56751C147.631 4.29785 147.75 4.09164 147.925 3.94887C148.115 3.79025 148.353 3.71094 148.638 3.71094H150.994V11.8246H157.846V15.2033H150.994V29.3605C150.994 30.3122 151.224 31.026 151.684 31.5019C152.16 31.9619 152.763 32.1919 153.492 32.1919C153.92 32.1919 154.285 32.1364 154.587 32.0253C154.904 31.9143 155.174 31.7953 155.396 31.6684C155.618 31.5257 155.808 31.3988 155.967 31.2877C156.125 31.1767 156.268 31.1212 156.395 31.1212C156.554 31.1212 156.673 31.1608 156.752 31.2402C156.847 31.3036 156.942 31.4146 157.037 31.5733L158.417 33.8099C157.656 34.5078 156.752 35.0471 155.705 35.4278C154.658 35.8085 153.572 35.9989 152.445 35.9989Z" fill="#222222"/>
<path d="M152.445 35.9989C150.494 35.9989 148.987 35.4516 147.925 34.3571C146.878 33.2626 146.354 31.7002 146.354 29.6698V15.2033H143.546C143.277 15.2033 143.047 15.1239 142.856 14.9653C142.682 14.7908 142.595 14.537 142.595 14.2039V12.3242L146.521 11.777L147.568 4.56751C147.631 4.29785 147.75 4.09164 147.925 3.94887C148.115 3.79025 148.353 3.71094 148.638 3.71094H150.994V11.8246H157.846V15.2033H150.994V29.3605C150.994 30.3122 151.224 31.026 151.684 31.5019C152.16 31.9619 152.763 32.1919 153.492 32.1919C153.92 32.1919 154.285 32.1364 154.587 32.0253C154.904 31.9143 155.174 31.7953 155.396 31.6684C155.618 31.5257 155.808 31.3988 155.967 31.2877C156.125 31.1767 156.268 31.1212 156.395 31.1212C156.554 31.1212 156.673 31.1608 156.752 31.2402C156.847 31.3036 156.942 31.4146 157.037 31.5733L158.417 33.8099C157.656 34.5078 156.752 35.0471 155.705 35.4278C154.658 35.8085 153.572 35.9989 152.445 35.9989Z" fill="url(#paint4_linear_1702_6487)" fill-opacity="0.05"/>
<path d="M132.871 32.8361C132.871 32.4078 132.95 32.0033 133.109 31.6226C133.268 31.2419 133.482 30.9088 133.751 30.6233C134.037 30.3377 134.37 30.1157 134.751 29.957C135.131 29.7826 135.544 29.6953 135.988 29.6953C136.416 29.6953 136.821 29.7826 137.202 29.957C137.582 30.1157 137.915 30.3377 138.201 30.6233C138.486 30.9088 138.708 31.2419 138.867 31.6226C139.042 32.0033 139.129 32.4078 139.129 32.8361C139.129 33.2802 139.042 33.6926 138.867 34.0733C138.708 34.454 138.486 34.7871 138.201 35.0727C137.915 35.3582 137.582 35.5803 137.202 35.7389C136.821 35.8975 136.416 35.9768 135.988 35.9768C135.544 35.9768 135.131 35.8975 134.751 35.7389C134.37 35.5803 134.037 35.3582 133.751 35.0727C133.482 34.7871 133.268 34.454 133.109 34.0733C132.95 33.6926 132.871 33.2802 132.871 32.8361Z" fill="#222222"/>
<path d="M132.871 32.8361C132.871 32.4078 132.95 32.0033 133.109 31.6226C133.268 31.2419 133.482 30.9088 133.751 30.6233C134.037 30.3377 134.37 30.1157 134.751 29.957C135.131 29.7826 135.544 29.6953 135.988 29.6953C136.416 29.6953 136.821 29.7826 137.202 29.957C137.582 30.1157 137.915 30.3377 138.201 30.6233C138.486 30.9088 138.708 31.2419 138.867 31.6226C139.042 32.0033 139.129 32.4078 139.129 32.8361C139.129 33.2802 139.042 33.6926 138.867 34.0733C138.708 34.454 138.486 34.7871 138.201 35.0727C137.915 35.3582 137.582 35.5803 137.202 35.7389C136.821 35.8975 136.416 35.9768 135.988 35.9768C135.544 35.9768 135.131 35.8975 134.751 35.7389C134.37 35.5803 134.037 35.3582 133.751 35.0727C133.482 34.7871 133.268 34.454 133.109 34.0733C132.95 33.6926 132.871 33.2802 132.871 32.8361Z" fill="url(#paint5_linear_1702_6487)" fill-opacity="0.05"/>
<path fill-rule="evenodd" clip-rule="evenodd" d="M14.3714 16.2748C15.0217 16.5128 15.6245 16.9411 16.1797 17.5597V28.0051C15.8624 28.3858 15.5372 28.7268 15.2041 29.0282C14.8869 29.3137 14.5458 29.5517 14.181 29.742C13.8162 29.9324 13.4117 30.0831 12.9675 30.1941C12.5392 30.2893 12.0554 30.3369 11.5161 30.3369C10.9292 30.3369 10.3978 30.2179 9.92194 29.98C9.44607 29.742 9.03365 29.3534 8.68467 28.8141C8.35156 28.2589 8.08983 27.5372 7.89948 26.6489C7.70913 25.7606 7.61396 24.6661 7.61396 23.3653C7.61396 22.017 7.73293 20.867 7.97086 19.9153C8.2088 18.9635 8.53398 18.1942 8.9464 17.6073C9.37469 17.0045 9.87435 16.5683 10.4454 16.2986C11.0164 16.029 11.643 15.8941 12.3251 15.8941C13.0389 15.8941 13.721 16.021 14.3714 16.2748ZM23.5557 35.6191V0H16.1797V12.4917C15.4659 11.873 14.6727 11.3813 13.8003 11.0164C12.9279 10.6516 11.8492 10.4692 10.5644 10.4692C8.99399 10.4692 7.55844 10.7944 6.25772 11.4447C4.957 12.0951 3.83871 12.9992 2.90282 14.1572C1.9828 15.2993 1.26899 16.6635 0.761396 18.2497C0.253799 19.8201 0 21.5253 0 23.3653C0 25.364 0.222074 27.1485 0.666221 28.7189C1.12623 30.2734 1.7528 31.59 2.54592 32.6686C3.33904 33.7473 4.28285 34.5721 5.37736 35.1432C6.47187 35.7142 7.66155 35.9998 8.9464 35.9998C9.78711 35.9998 10.5644 35.9125 11.2782 35.738C12.0078 35.5794 12.682 35.3494 13.3006 35.048C13.9351 34.7308 14.522 34.358 15.0614 33.9297C15.6007 33.5014 16.1162 33.0256 16.608 32.5021L17.179 34.3818C17.4645 35.2066 18.0673 35.6191 18.9873 35.6191H23.5557ZM127.148 35.619H120.058C119.534 35.619 119.106 35.4921 118.773 35.2383C118.456 34.9845 118.202 34.6831 118.011 34.3341L113.61 26.7678C113.53 27.0374 113.435 27.2912 113.324 27.5292C113.213 27.7671 113.094 27.9892 112.967 28.1954L109.351 34.3341C109.128 34.6514 108.867 34.9448 108.565 35.2145C108.264 35.4842 107.875 35.619 107.399 35.619H100.832L109.113 22.8656L101.166 10.945H108.256C108.78 10.945 109.16 11.0164 109.398 11.1592C109.652 11.2861 109.874 11.5081 110.064 11.8254L114.466 19.13C114.561 18.8445 114.68 18.5669 114.823 18.2972C114.966 18.0117 115.124 17.7262 115.299 17.4407L121.498 5.11984C121.72 4.77087 121.95 4.51707 122.188 4.35844C122.442 4.19982 122.752 4.12051 123.116 4.12051H129.874L118.868 22.5325L127.148 35.619ZM93.6576 20.32C93.6576 19.7331 93.5783 19.162 93.4196 18.6069C93.2769 18.0517 93.031 17.5599 92.682 17.1317C92.3489 16.6875 91.9048 16.3306 91.3496 16.0609C90.7944 15.7913 90.1203 15.6565 89.3271 15.6565C87.9312 15.6565 86.8367 16.0609 86.0436 16.8699C85.2505 17.663 84.727 18.8131 84.4732 20.32H93.6576ZM84.3781 24.6029C84.616 26.665 85.2426 28.164 86.2578 29.0999C87.2729 30.0199 88.5816 30.4799 90.1837 30.4799C91.0403 30.4799 91.7779 30.3768 92.3965 30.1706C93.0151 29.9644 93.5624 29.7343 94.0383 29.4805C94.53 29.2267 94.9741 28.9967 95.3707 28.7905C95.7831 28.5843 96.2114 28.4812 96.6556 28.4812C97.2425 28.4812 97.6866 28.6954 97.988 29.1236L100.129 31.7647C99.368 32.6372 98.5432 33.351 97.6549 33.9062C96.7825 34.4455 95.8783 34.8738 94.9424 35.191C94.0224 35.4924 93.0945 35.6986 92.1586 35.8097C91.2385 35.9366 90.3582 36 89.5175 36C87.7885 36 86.1626 35.7224 84.6398 35.1672C83.1329 34.5962 81.8083 33.7555 80.6663 32.6451C79.54 31.5347 78.6438 30.1547 77.9776 28.505C77.3272 26.8553 77.002 24.936 77.002 22.747C77.002 21.0973 77.2796 19.5348 77.8348 18.0596C78.4059 16.5844 79.2148 15.2916 80.2618 14.1812C81.3245 13.0709 82.6015 12.1905 84.0925 11.5402C85.5995 10.8898 87.2967 10.5646 89.1844 10.5646C90.8182 10.5646 92.3093 10.8184 93.6576 11.326C95.0217 11.8336 96.1876 12.5712 97.1552 13.5388C98.1387 14.5064 98.9001 15.6961 99.4394 17.1079C99.9946 18.5038 100.272 20.09 100.272 21.8666C100.272 22.4218 100.248 22.8739 100.201 23.2228C100.153 23.5718 100.066 23.8494 99.9391 24.0556C99.8122 24.2618 99.6377 24.4046 99.4156 24.4839C99.2094 24.5632 98.9398 24.6029 98.6066 24.6029H84.3781ZM67.1751 35.6191L76.7402 10.9451H70.887C70.4111 10.9451 69.9987 11.072 69.6497 11.3258C69.3007 11.5637 69.0628 11.8651 68.9359 12.23L65.3668 23.294C64.7482 25.0547 64.2644 26.7917 63.9154 28.5048C63.7409 27.6482 63.5347 26.7917 63.2968 25.9351C63.0747 25.0785 62.813 24.1982 62.5116 23.294L59.0853 12.23C58.9584 11.8651 58.7125 11.5637 58.3477 11.3258C57.9987 11.072 57.5625 10.9451 57.0391 10.9451H50.9003L60.4653 35.6191H67.1751ZM43.8861 20.32C43.8861 19.7331 43.8068 19.162 43.6482 18.6069C43.5054 18.0517 43.2596 17.5599 42.9106 17.1317C42.5775 16.6875 42.1333 16.3306 41.5782 16.0609C41.023 15.7913 40.3488 15.6565 39.5557 15.6565C38.1598 15.6565 37.0653 16.0609 36.2722 16.8699C35.4791 17.663 34.9556 18.8131 34.7018 20.32H43.8861ZM34.6066 24.6029C34.8446 26.665 35.4711 28.164 36.4863 29.0999C37.5015 30.0199 38.8102 30.4799 40.4123 30.4799C41.2688 30.4799 42.0064 30.3768 42.6251 30.1706C43.2437 29.9644 43.791 29.7343 44.2668 29.4805C44.7586 29.2267 45.2027 28.9967 45.5993 28.7905C46.0117 28.5843 46.44 28.4812 46.8841 28.4812C47.4711 28.4812 47.9152 28.6954 48.2166 29.1236L50.358 31.7647C49.5966 32.6372 48.7718 33.351 47.8835 33.9062C47.011 34.4455 46.1069 34.8738 45.171 35.191C44.251 35.4924 43.323 35.6986 42.3871 35.8097C41.4671 35.9366 40.5868 36 39.7461 36C38.0171 36 36.3912 35.7224 34.8684 35.1672C33.3614 34.5962 32.0369 33.7555 30.8948 32.6451C29.7686 31.5347 28.8724 30.1547 28.2061 28.505C27.5558 26.8553 27.2306 24.936 27.2306 22.747C27.2306 21.0973 27.5082 19.5348 28.0634 18.0596C28.6344 16.5844 29.4434 15.2916 30.4903 14.1812C31.5531 13.0709 32.83 12.1905 34.3211 11.5402C35.828 10.8898 37.5253 10.5646 39.4129 10.5646C41.0468 10.5646 42.5378 10.8184 43.8861 11.326C45.2503 11.8336 46.4162 12.5712 47.3838 13.5388C48.3673 14.5064 49.1287 15.6961 49.668 17.1079C50.2232 18.5038 50.5008 20.09 50.5008 21.8666C50.5008 22.4218 50.477 22.8739 50.4294 23.2228C50.3818 23.5718 50.2946 23.8494 50.1677 24.0556C50.0408 24.2618 49.8663 24.4046 49.6442 24.4839C49.438 24.5632 49.1683 24.6029 48.8352 24.6029H34.6066Z" fill="#663399"/>
<path fill-rule="evenodd" clip-rule="evenodd" d="M14.3714 16.2748C15.0217 16.5128 15.6245 16.9411 16.1797 17.5597V28.0051C15.8624 28.3858 15.5372 28.7268 15.2041 29.0282C14.8869 29.3137 14.5458 29.5517 14.181 29.742C13.8162 29.9324 13.4117 30.0831 12.9675 30.1941C12.5392 30.2893 12.0554 30.3369 11.5161 30.3369C10.9292 30.3369 10.3978 30.2179 9.92194 29.98C9.44607 29.742 9.03365 29.3534 8.68467 28.8141C8.35156 28.2589 8.08983 27.5372 7.89948 26.6489C7.70913 25.7606 7.61396 24.6661 7.61396 23.3653C7.61396 22.017 7.73293 20.867 7.97086 19.9153C8.2088 18.9635 8.53398 18.1942 8.9464 17.6073C9.37469 17.0045 9.87435 16.5683 10.4454 16.2986C11.0164 16.029 11.643 15.8941 12.3251 15.8941C13.0389 15.8941 13.721 16.021 14.3714 16.2748ZM23.5557 35.6191V0H16.1797V12.4917C15.4659 11.873 14.6727 11.3813 13.8003 11.0164C12.9279 10.6516 11.8492 10.4692 10.5644 10.4692C8.99399 10.4692 7.55844 10.7944 6.25772 11.4447C4.957 12.0951 3.83871 12.9992 2.90282 14.1572C1.9828 15.2993 1.26899 16.6635 0.761396 18.2497C0.253799 19.8201 0 21.5253 0 23.3653C0 25.364 0.222074 27.1485 0.666221 28.7189C1.12623 30.2734 1.7528 31.59 2.54592 32.6686C3.33904 33.7473 4.28285 34.5721 5.37736 35.1432C6.47187 35.7142 7.66155 35.9998 8.9464 35.9998C9.78711 35.9998 10.5644 35.9125 11.2782 35.738C12.0078 35.5794 12.682 35.3494 13.3006 35.048C13.9351 34.7308 14.522 34.358 15.0614 33.9297C15.6007 33.5014 16.1162 33.0256 16.608 32.5021L17.179 34.3818C17.4645 35.2066 18.0673 35.6191 18.9873 35.6191H23.5557ZM127.148 35.619H120.058C119.534 35.619 119.106 35.4921 118.773 35.2383C118.456 34.9845 118.202 34.6831 118.011 34.3341L113.61 26.7678C113.53 27.0374 113.435 27.2912 113.324 27.5292C113.213 27.7671 113.094 27.9892 112.967 28.1954L109.351 34.3341C109.128 34.6514 108.867 34.9448 108.565 35.2145C108.264 35.4842 107.875 35.619 107.399 35.619H100.832L109.113 22.8656L101.166 10.945H108.256C108.78 10.945 109.16 11.0164 109.398 11.1592C109.652 11.2861 109.874 11.5081 110.064 11.8254L114.466 19.13C114.561 18.8445 114.68 18.5669 114.823 18.2972C114.966 18.0117 115.124 17.7262 115.299 17.4407L121.498 5.11984C121.72 4.77087 121.95 4.51707 122.188 4.35844C122.442 4.19982 122.752 4.12051 123.116 4.12051H129.874L118.868 22.5325L127.148 35.619ZM93.6576 20.32C93.6576 19.7331 93.5783 19.162 93.4196 18.6069C93.2769 18.0517 93.031 17.5599 92.682 17.1317C92.3489 16.6875 91.9048 16.3306 91.3496 16.0609C90.7944 15.7913 90.1203 15.6565 89.3271 15.6565C87.9312 15.6565 86.8367 16.0609 86.0436 16.8699C85.2505 17.663 84.727 18.8131 84.4732 20.32H93.6576ZM84.3781 24.6029C84.616 26.665 85.2426 28.164 86.2578 29.0999C87.2729 30.0199 88.5816 30.4799 90.1837 30.4799C91.0403 30.4799 91.7779 30.3768 92.3965 30.1706C93.0151 29.9644 93.5624 29.7343 94.0383 29.4805C94.53 29.2267 94.9741 28.9967 95.3707 28.7905C95.7831 28.5843 96.2114 28.4812 96.6556 28.4812C97.2425 28.4812 97.6866 28.6954 97.988 29.1236L100.129 31.7647C99.368 32.6372 98.5432 33.351 97.6549 33.9062C96.7825 34.4455 95.8783 34.8738 94.9424 35.191C94.0224 35.4924 93.0945 35.6986 92.1586 35.8097C91.2385 35.9366 90.3582 36 89.5175 36C87.7885 36 86.1626 35.7224 84.6398 35.1672C83.1329 34.5962 81.8083 33.7555 80.6663 32.6451C79.54 31.5347 78.6438 30.1547 77.9776 28.505C77.3272 26.8553 77.002 24.936 77.002 22.747C77.002 21.0973 77.2796 19.5348 77.8348 18.0596C78.4059 16.5844 79.2148 15.2916 80.2618 14.1812C81.3245 13.0709 82.6015 12.1905 84.0925 11.5402C85.5995 10.8898 87.2967 10.5646 89.1844 10.5646C90.8182 10.5646 92.3093 10.8184 93.6576 11.326C95.0217 11.8336 96.1876 12.5712 97.1552 13.5388C98.1387 14.5064 98.9001 15.6961 99.4394 17.1079C99.9946 18.5038 100.272 20.09 100.272 21.8666C100.272 22.4218 100.248 22.8739 100.201 23.2228C100.153 23.5718 100.066 23.8494 99.9391 24.0556C99.8122 24.2618 99.6377 24.4046 99.4156 24.4839C99.2094 24.5632 98.9398 24.6029 98.6066 24.6029H84.3781ZM67.1751 35.6191L76.7402 10.9451H70.887C70.4111 10.9451 69.9987 11.072 69.6497 11.3258C69.3007 11.5637 69.0628 11.8651 68.9359 12.23L65.3668 23.294C64.7482 25.0547 64.2644 26.7917 63.9154 28.5048C63.7409 27.6482 63.5347 26.7917 63.2968 25.9351C63.0747 25.0785 62.813 24.1982 62.5116 23.294L59.0853 12.23C58.9584 11.8651 58.7125 11.5637 58.3477 11.3258C57.9987 11.072 57.5625 10.9451 57.0391 10.9451H50.9003L60.4653 35.6191H67.1751ZM43.8861 20.32C43.8861 19.7331 43.8068 19.162 43.6482 18.6069C43.5054 18.0517 43.2596 17.5599 42.9106 17.1317C42.5775 16.6875 42.1333 16.3306 41.5782 16.0609C41.023 15.7913 40.3488 15.6565 39.5557 15.6565C38.1598 15.6565 37.0653 16.0609 36.2722 16.8699C35.4791 17.663 34.9556 18.8131 34.7018 20.32H43.8861ZM34.6066 24.6029C34.8446 26.665 35.4711 28.164 36.4863 29.0999C37.5015 30.0199 38.8102 30.4799 40.4123 30.4799C41.2688 30.4799 42.0064 30.3768 42.6251 30.1706C43.2437 29.9644 43.791 29.7343 44.2668 29.4805C44.7586 29.2267 45.2027 28.9967 45.5993 28.7905C46.0117 28.5843 46.44 28.4812 46.8841 28.4812C47.4711 28.4812 47.9152 28.6954 48.2166 29.1236L50.358 31.7647C49.5966 32.6372 48.7718 33.351 47.8835 33.9062C47.011 34.4455 46.1069 34.8738 45.171 35.191C44.251 35.4924 43.323 35.6986 42.3871 35.8097C41.4671 35.9366 40.5868 36 39.7461 36C38.0171 36 36.3912 35.7224 34.8684 35.1672C33.3614 34.5962 32.0369 33.7555 30.8948 32.6451C29.7686 31.5347 28.8724 30.1547 28.2061 28.505C27.5558 26.8553 27.2306 24.936 27.2306 22.747C27.2306 21.0973 27.5082 19.5348 28.0634 18.0596C28.6344 16.5844 29.4434 15.2916 30.4903 14.1812C31.5531 13.0709 32.83 12.1905 34.3211 11.5402C35.828 10.8898 37.5253 10.5646 39.4129 10.5646C41.0468 10.5646 42.5378 10.8184 43.8861 11.326C45.2503 11.8336 46.4162 12.5712 47.3838 13.5388C48.3673 14.5064 49.1287 15.6961 49.668 17.1079C50.2232 18.5038 50.5008 20.09 50.5008 21.8666C50.5008 22.4218 50.477 22.8739 50.4294 23.2228C50.3818 23.5718 50.2946 23.8494 50.1677 24.0556C50.0408 24.2618 49.8663 24.4046 49.6442 24.4839C49.438 24.5632 49.1683 24.6029 48.8352 24.6029H34.6066Z" fill="url(#paint6_linear_1702_6487)" fill-opacity="0.05"/>
<defs>
<linearGradient id="paint0_linear_1702_6487" x1="234.822" y1="11.1737" x2="234.822" y2="36.5817" gradientUnits="userSpaceOnUse">
<stop stop-color="white"/>
<stop offset="0.295" stop-color="#E9E9E9"/>
<stop offset="1"/>
</linearGradient>
<linearGradient id="paint1_linear_1702_6487" x1="218.682" y1="0.651117" x2="218.682" y2="36.4357" gradientUnits="userSpaceOnUse">
<stop stop-color="white"/>
<stop offset="0.295" stop-color="#E9E9E9"/>
<stop offset="1"/>
</linearGradient>
<linearGradient id="paint2_linear_1702_6487" x1="199.784" y1="11.1735" x2="199.784" y2="36.533" gradientUnits="userSpaceOnUse">
<stop stop-color="white"/>
<stop offset="0.295" stop-color="#E9E9E9"/>
<stop offset="1"/>
</linearGradient>
<linearGradient id="paint3_linear_1702_6487" x1="172.691" y1="11.1735" x2="172.691" y2="36.533" gradientUnits="userSpaceOnUse">
<stop stop-color="white"/>
<stop offset="0.295" stop-color="#E9E9E9"/>
<stop offset="1"/>
</linearGradient>
<linearGradient id="paint4_linear_1702_6487" x1="150.808" y1="3.84987" x2="150.808" y2="36.7493" gradientUnits="userSpaceOnUse">
<stop stop-color="white"/>
<stop offset="0.295" stop-color="#E9E9E9"/>
<stop offset="1"/>
</linearGradient>
<linearGradient id="paint5_linear_1702_6487" x1="136.119" y1="29.7223" x2="136.119" y2="36.1228" gradientUnits="userSpaceOnUse">
<stop stop-color="white"/>
<stop offset="0.295" stop-color="#E9E9E9"/>
<stop offset="1"/>
</linearGradient>
<linearGradient id="paint6_linear_1702_6487" x1="67.4154" y1="0.154906" x2="67.4154" y2="36.8367" gradientUnits="userSpaceOnUse">
<stop stop-color="white"/>
<stop offset="0.295" stop-color="#E9E9E9"/>
<stop offset="1"/>
</linearGradient>
</defs>
</svg>
