<svg width="20" height="20" viewBox="0 0 20 20" fill="none" xmlns="http://www.w3.org/2000/svg">
<path d="M15 20V17H12V15H15V12H17V15H20V17H17V20H15ZM10 20C8.61667 20 7.31667 19.7375 6.1 19.2125C4.88333 18.6875 3.825 17.975 2.925 17.075C2.025 16.175 1.3125 15.1167 0.7875 13.9C0.2625 12.6833 0 11.3833 0 10C0 8.61667 0.2625 7.31667 0.7875 6.1C1.3125 4.88333 2.025 3.825 2.925 2.925C3.825 2.025 4.88333 1.3125 6.1 0.7875C7.31667 0.2625 8.61667 0 10 0C11.3833 0 12.6833 0.2625 13.9 0.7875C15.1167 1.3125 16.175 2.025 17.075 2.925C17.975 3.825 18.6875 4.88333 19.2125 6.1C19.7375 7.31667 20 8.61667 20 10C20 10.25 19.9917 10.4917 19.975 10.725C19.9583 10.9583 19.9333 11.1917 19.9 11.425C19.4 10.9917 18.8375 10.6542 18.2125 10.4125C17.5875 10.1708 16.9167 10.0333 16.2 10L17.8 8.325C17.7333 8.025 17.6583 7.73333 17.575 7.45C17.4917 7.16667 17.3833 6.89167 17.25 6.625L8.8 15.05C8.98333 15.2667 9.17083 15.475 9.3625 15.675C9.55417 15.875 9.76667 16.0667 10 16.25C10.0333 16.95 10.175 17.6083 10.425 18.225C10.675 18.8417 11.0167 19.4 11.45 19.9C11.2167 19.9333 10.9792 19.9583 10.7375 19.975C10.4958 19.9917 10.25 20 10 20ZM7.725 13.325L16.15 4.9C15.9667 4.7 15.7833 4.50417 15.6 4.3125C15.4167 4.12083 15.2167 3.94167 15 3.775L7.175 11.625C7.24167 11.925 7.31667 12.2125 7.4 12.4875C7.48333 12.7625 7.59167 13.0417 7.725 13.325ZM7.075 8.875L13.25 2.7C13.1167 2.65 12.9958 2.59583 12.8875 2.5375C12.7792 2.47917 12.6583 2.43333 12.525 2.4C11.0917 2.86667 9.87917 3.67917 8.8875 4.8375C7.89583 5.99583 7.29167 7.34167 7.075 8.875ZM2 10C2 12.0333 2.65833 13.7958 3.975 15.2875C5.29167 16.7792 6.93333 17.6583 8.9 17.925C7.7 17.0083 6.75 15.8625 6.05 14.4875C5.35 13.1125 5 11.6167 5 10C5 8.38333 5.35 6.8875 6.05 5.5125C6.75 4.1375 7.7 2.99167 8.9 2.075C6.93333 2.34167 5.29167 3.22083 3.975 4.7125C2.65833 6.20417 2 7.96667 2 10Z" fill="#1C1B1F"/>
</svg>
