<svg width="18" height="18" viewBox="0 0 18 18" fill="none" xmlns="http://www.w3.org/2000/svg">
<path d="M15.9998 17.1373C15.6806 17.1373 15.4112 17.021 15.1917 16.7884C14.9721 16.5558 14.8436 16.2735 14.8063 15.9417C14.665 14.2409 14.2392 12.6485 13.5289 11.1645C12.8185 9.68044 11.8965 8.37255 10.7629 7.24084C9.62915 6.10914 8.31828 5.18695 6.83023 4.47426C5.3422 3.7616 3.75415 3.3346 2.0661 3.19329C1.74219 3.15995 1.46058 3.03151 1.22128 2.80796C0.981963 2.58441 0.862305 2.31503 0.862305 1.99981C0.862305 1.68061 0.973446 1.41123 1.19573 1.19166C1.41801 0.972096 1.68477 0.872638 1.996 0.893288C4.01194 1.03459 5.90605 1.52272 7.67833 2.35769C9.45061 3.19265 11.0114 4.28179 12.3607 5.62509C13.7099 6.96839 14.8031 8.52834 15.64 10.305C16.477 12.0816 16.9638 13.9779 17.1004 15.9938C17.121 16.313 17.0225 16.5834 16.805 16.805C16.5874 17.0265 16.319 17.1373 15.9998 17.1373Z" fill="#1C1B1F"/>
</svg>
