<svg width="18" height="20" viewBox="0 0 18 20" fill="none" xmlns="http://www.w3.org/2000/svg">
<path d="M9.00015 19.203C6.73167 19.203 4.79733 18.4184 3.19715 16.8492C1.59697 15.28 0.796875 13.3675 0.796875 11.1117C0.796875 9.99649 1.01019 8.95311 1.43682 7.98156C1.86346 7.00999 2.4554 6.14957 3.21265 5.40031L7.80667 0.881284C7.97659 0.724034 8.16517 0.603926 8.37242 0.520959C8.57967 0.437976 8.78892 0.396484 9.00015 0.396484C9.21138 0.396484 9.42063 0.437976 9.62788 0.520959C9.83512 0.603926 10.0237 0.724034 10.1936 0.881284L14.7877 5.40031C15.5449 6.14957 16.1368 7.00999 16.5635 7.98156C16.9901 8.95311 17.2034 9.99649 17.2034 11.1117C17.2034 13.3675 16.4033 15.28 14.8031 16.8492C13.203 18.4184 11.2686 19.203 9.00015 19.203ZM3.1219 11.9998H14.8404C15.0165 10.8237 14.9079 9.82159 14.5148 8.99351C14.1217 8.16543 13.7001 7.53472 13.2501 7.10138L9.00015 2.90138L4.75015 7.10138C4.30015 7.53472 3.87542 8.16543 3.47597 8.99351C3.07651 9.82159 2.95848 10.8237 3.1219 11.9998Z" fill="#1C1B1F"/>
</svg>
