<svg width="18" height="18" viewBox="0 0 18 18" fill="none" xmlns="http://www.w3.org/2000/svg">
<path d="M1 18C0.716667 18 0.479167 17.9042 0.2875 17.7125C0.0958333 17.5208 0 17.2833 0 17V11C0 10.7167 0.0958333 10.4792 0.2875 10.2875C0.479167 10.0958 0.716667 10 1 10C1.28333 10 1.52083 10.0958 1.7125 10.2875C1.90417 10.4792 2 10.7167 2 11V14.6L14.6 2H11C10.7167 2 10.4792 1.90417 10.2875 1.7125C10.0958 1.52083 10 1.28333 10 1C10 0.716667 10.0958 0.479167 10.2875 0.2875C10.4792 0.0958333 10.7167 0 11 0H17C17.2833 0 17.5208 0.0958333 17.7125 0.2875C17.9042 0.479167 18 0.716667 18 1V7C18 7.28333 17.9042 7.52083 17.7125 7.7125C17.5208 7.90417 17.2833 8 17 8C16.7167 8 16.4792 7.90417 16.2875 7.7125C16.0958 7.52083 16 7.28333 16 7V3.4L3.4 16H7C7.28333 16 7.52083 16.0958 7.7125 16.2875C7.90417 16.4792 8 16.7167 8 17C8 17.2833 7.90417 17.5208 7.7125 17.7125C7.52083 17.9042 7.28333 18 7 18H1Z" fill="#222222"/>
</svg>
