<svg width="20" height="20" viewBox="0 0 20 20" fill="none" xmlns="http://www.w3.org/2000/svg">
<path d="M7.0659 13.9819C7.0659 13.685 6.96548 13.4362 6.76465 13.2354C6.56382 13.0345 6.31496 12.9341 6.01807 12.9341C5.72119 12.9341 5.47233 13.0345 5.2715 13.2354C5.07067 13.4362 4.97025 13.685 4.97025 13.9819C4.97025 14.2788 5.07067 14.5277 5.2715 14.7285C5.47233 14.9293 5.72119 15.0298 6.01807 15.0298C6.31496 15.0298 6.56382 14.9293 6.76465 14.7285C6.96548 14.5277 7.0659 14.2788 7.0659 13.9819ZM7.0659 9.99985C7.0659 9.70297 6.96548 9.45411 6.76465 9.25327C6.56382 9.05244 6.31496 8.95202 6.01807 8.95202C5.72119 8.95202 5.47233 9.05244 5.2715 9.25327C5.07067 9.45411 4.97025 9.70297 4.97025 9.99985C4.97025 10.2967 5.07067 10.5456 5.2715 10.7464C5.47233 10.9473 5.72119 11.0477 6.01807 11.0477C6.31496 11.0477 6.56382 10.9473 6.76465 10.7464C6.96548 10.5456 7.0659 10.2967 7.0659 9.99985ZM7.0659 6.01777C7.0659 5.72089 6.96548 5.47203 6.76465 5.2712C6.56382 5.07037 6.31496 4.96995 6.01807 4.96995C5.72119 4.96995 5.47233 5.07037 5.2715 5.2712C5.07067 5.47203 4.97025 5.72089 4.97025 6.01777C4.97025 6.31466 5.07067 6.56352 5.2715 6.76435C5.47233 6.96518 5.72119 7.0656 6.01807 7.0656C6.31496 7.0656 6.56382 6.96518 6.76465 6.76435C6.96548 6.56352 7.0659 6.31466 7.0659 6.01777ZM19.2034 16.9281C19.2034 17.5578 18.9817 18.0944 18.5382 18.5379C18.0947 18.9814 17.5581 19.2031 16.9284 19.2031H3.0719C2.44218 19.2031 1.90558 18.9814 1.4621 18.5379C1.01862 18.0944 0.796875 17.5578 0.796875 16.9281L0.796875 3.0716C0.796875 2.44188 1.01862 1.90528 1.4621 1.4618C1.90558 1.01832 2.44218 0.796576 3.0719 0.796576H16.9284C17.5581 0.796576 18.0947 1.01832 18.5382 1.4618C18.9817 1.90528 19.2034 2.44188 19.2034 3.0716V16.9281ZM16.9284 16.9281V3.0716H3.0719L3.0719 16.9281H16.9284Z" fill="#1C1B1F"/>
</svg>
