<svg width="24" height="25" viewBox="0 0 24 25" fill="none" xmlns="http://www.w3.org/2000/svg">
<mask id="mask0_1180_214" style="mask-type:alpha" maskUnits="userSpaceOnUse" x="0" y="0" width="24" height="25">
<rect y="0.5" width="24" height="24" fill="#D9D9D9"/>
</mask>
<g mask="url(#mask0_1180_214)">
<path d="M18 22.5C17.1667 22.5 16.4583 22.2083 15.875 21.625C15.2917 21.0417 15 20.3333 15 19.5C15 19.3833 15.0083 19.2625 15.025 19.1375C15.0417 19.0125 15.0667 18.9 15.1 18.8L8.05 14.7C7.76667 14.95 7.45 15.1458 7.1 15.2875C6.75 15.4292 6.38333 15.5 6 15.5C5.16667 15.5 4.45833 15.2083 3.875 14.625C3.29167 14.0417 3 13.3333 3 12.5C3 11.6667 3.29167 10.9583 3.875 10.375C4.45833 9.79167 5.16667 9.5 6 9.5C6.38333 9.5 6.75 9.57083 7.1 9.7125C7.45 9.85417 7.76667 10.05 8.05 10.3L15.1 6.2C15.0667 6.1 15.0417 5.9875 15.025 5.8625C15.0083 5.7375 15 5.61667 15 5.5C15 4.66667 15.2917 3.95833 15.875 3.375C16.4583 2.79167 17.1667 2.5 18 2.5C18.8333 2.5 19.5417 2.79167 20.125 3.375C20.7083 3.95833 21 4.66667 21 5.5C21 6.33333 20.7083 7.04167 20.125 7.625C19.5417 8.20833 18.8333 8.5 18 8.5C17.6167 8.5 17.25 8.42917 16.9 8.2875C16.55 8.14583 16.2333 7.95 15.95 7.7L8.9 11.8C8.93333 11.9 8.95833 12.0125 8.975 12.1375C8.99167 12.2625 9 12.3833 9 12.5C9 12.6167 8.99167 12.7375 8.975 12.8625C8.95833 12.9875 8.93333 13.1 8.9 13.2L15.95 17.3C16.2333 17.05 16.55 16.8542 16.9 16.7125C17.25 16.5708 17.6167 16.5 18 16.5C18.8333 16.5 19.5417 16.7917 20.125 17.375C20.7083 17.9583 21 18.6667 21 19.5C21 20.3333 20.7083 21.0417 20.125 21.625C19.5417 22.2083 18.8333 22.5 18 22.5ZM18 6.5C18.2833 6.5 18.5208 6.40417 18.7125 6.2125C18.9042 6.02083 19 5.78333 19 5.5C19 5.21667 18.9042 4.97917 18.7125 4.7875C18.5208 4.59583 18.2833 4.5 18 4.5C17.7167 4.5 17.4792 4.59583 17.2875 4.7875C17.0958 4.97917 17 5.21667 17 5.5C17 5.78333 17.0958 6.02083 17.2875 6.2125C17.4792 6.40417 17.7167 6.5 18 6.5ZM6 13.5C6.28333 13.5 6.52083 13.4042 6.7125 13.2125C6.90417 13.0208 7 12.7833 7 12.5C7 12.2167 6.90417 11.9792 6.7125 11.7875C6.52083 11.5958 6.28333 11.5 6 11.5C5.71667 11.5 5.47917 11.5958 5.2875 11.7875C5.09583 11.9792 5 12.2167 5 12.5C5 12.7833 5.09583 13.0208 5.2875 13.2125C5.47917 13.4042 5.71667 13.5 6 13.5ZM18 20.5C18.2833 20.5 18.5208 20.4042 18.7125 20.2125C18.9042 20.0208 19 19.7833 19 19.5C19 19.2167 18.9042 18.9792 18.7125 18.7875C18.5208 18.5958 18.2833 18.5 18 18.5C17.7167 18.5 17.4792 18.5958 17.2875 18.7875C17.0958 18.9792 17 19.2167 17 19.5C17 19.7833 17.0958 20.0208 17.2875 20.2125C17.4792 20.4042 17.7167 20.5 18 20.5Z" fill="#333333"/>
</g>
</svg>
