<svg width="25" height="20" viewBox="0 0 25 20" fill="none" xmlns="http://www.w3.org/2000/svg">
<path d="M4.22364 19.2538C3.71097 19.2538 3.27225 19.1081 2.90747 18.8167C2.54269 18.5254 2.36 18.1747 2.35938 17.7647V7.3407C2.35938 6.93119 2.54207 6.58074 2.90747 6.28937C3.27287 5.99799 3.71159 5.85206 4.22364 5.85156H17.2735C17.7862 5.85156 18.2252 5.9975 18.5906 6.28937C18.956 6.58124 19.1384 6.93168 19.1378 7.3407V17.7647C19.1378 18.1742 18.9554 18.5249 18.5906 18.8167C18.2259 19.1086 17.7868 19.2543 17.2735 19.2538H4.22364ZM4.22364 17.7647H17.2735V7.3407H4.22364V17.7647ZM5.15578 16.2755H16.3414L12.8459 12.5527L10.0495 15.531L7.95218 13.2972L5.15578 16.2755Z" fill="black"/>
<path d="M22.7919 6.0153L21.6119 7.17346L20.8307 6.40136L16.5592 10.5936L14.0107 11.6049L13.1797 10.7893L14.2102 8.28812L18.4817 4.09592L17.695 3.32925L18.875 2.17109L22.7919 6.0153ZM21.357 1.27393C21.6687 0.968455 22.0911 0.796875 22.5315 0.796875C22.972 0.796875 23.3944 0.968455 23.7061 1.27393C24.0173 1.57978 24.1921 1.99438 24.1921 2.42665C24.1921 2.85892 24.0173 3.27351 23.7061 3.57937L22.6424 4.62334L20.2933 2.3179L21.357 1.27393ZM15.152 8.90254L14.5647 10.2456L15.9332 9.66921L20.0495 5.62381L19.2739 4.86258L15.152 8.90254Z" fill="black"/>
<path d="M18.4221 5.70703L19.1926 6.48708L16.8312 8.79777L16.1602 7.9147L18.4221 5.70703Z" fill="white"/>
</svg>
