<svg width="20" height="20" viewBox="0 0 20 20" fill="none" xmlns="http://www.w3.org/2000/svg">
<path d="M16.9284 16.9284V13.9344H3.0719V16.9284H16.9284ZM16.9284 11.9284V8.0659H3.0719V11.9284H16.9284ZM16.9284 6.0659V3.0719H3.0719V6.0659H16.9284ZM3.0719 19.2034C2.44218 19.2034 1.90558 18.9817 1.4621 18.5382C1.01862 18.0947 0.796875 17.5581 0.796875 16.9284V3.0719C0.796875 2.44218 1.01862 1.90558 1.4621 1.4621C1.90558 1.01862 2.44218 0.796875 3.0719 0.796875H16.9284C17.5581 0.796875 18.0947 1.01862 18.5382 1.4621C18.9817 1.90558 19.2034 2.44218 19.2034 3.0719V16.9284C19.2034 17.5581 18.9817 18.0947 18.5382 18.5382C18.0947 18.9817 17.5581 19.2034 16.9284 19.2034H3.0719Z" fill="#1C1B1F"/>
</svg>
