<svg width="16" height="16" viewBox="0 0 16 16" fill="none" xmlns="http://www.w3.org/2000/svg">
<path d="M0.888889 16C0.637037 16 0.426074 15.9147 0.256 15.744C0.085926 15.5733 0.000592592 15.3624 0 15.1111C0 14.8593 0.0853334 14.6483 0.256 14.4782C0.426667 14.3081 0.63763 14.2228 0.888889 14.2222H15.1111C15.363 14.2222 15.5742 14.3076 15.7449 14.4782C15.9156 14.6489 16.0006 14.8598 16 15.1111C16 15.363 15.9147 15.5742 15.744 15.7449C15.5733 15.9156 15.3624 16.0006 15.1111 16H0.888889ZM4.44444 12.4444C4.19259 12.4444 3.98163 12.3591 3.81155 12.1884C3.64148 12.0178 3.55615 11.8068 3.55555 11.5556C3.55555 11.3037 3.64089 11.0927 3.81155 10.9227C3.98222 10.7526 4.19318 10.6673 4.44444 10.6667H11.5556C11.8074 10.6667 12.0187 10.752 12.1893 10.9227C12.36 11.0933 12.445 11.3043 12.4444 11.5556C12.4444 11.8074 12.3591 12.0187 12.1884 12.1893C12.0178 12.36 11.8068 12.445 11.5556 12.4444H4.44444ZM0.888889 8.88889C0.637037 8.88889 0.426074 8.80355 0.256 8.63289C0.085926 8.46222 0.000592592 8.25126 0 8C0 7.74815 0.0853334 7.53718 0.256 7.36711C0.426667 7.19704 0.63763 7.1117 0.888889 7.11111H15.1111C15.363 7.11111 15.5742 7.19644 15.7449 7.36711C15.9156 7.53778 16.0006 7.74874 16 8C16 8.25185 15.9147 8.46311 15.744 8.63378C15.5733 8.80444 15.3624 8.88948 15.1111 8.88889H0.888889ZM4.44444 5.33333C4.19259 5.33333 3.98163 5.248 3.81155 5.07733C3.64148 4.90667 3.55615 4.6957 3.55555 4.44444C3.55555 4.19259 3.64089 3.98163 3.81155 3.81155C3.98222 3.64148 4.19318 3.55615 4.44444 3.55555H11.5556C11.8074 3.55555 12.0187 3.64089 12.1893 3.81155C12.36 3.98222 12.445 4.19318 12.4444 4.44444C12.4444 4.6963 12.3591 4.90756 12.1884 5.07822C12.0178 5.24889 11.8068 5.33392 11.5556 5.33333H4.44444ZM0.888889 1.77778C0.637037 1.77778 0.426074 1.69244 0.256 1.52178C0.085926 1.35111 0.000592592 1.14015 0 0.888889C0 0.637037 0.0853334 0.426074 0.256 0.256C0.426667 0.085926 0.63763 0.000592592 0.888889 0H15.1111C15.363 0 15.5742 0.0853334 15.7449 0.256C15.9156 0.426667 16.0006 0.63763 16 0.888889C16 1.14074 15.9147 1.352 15.744 1.52267C15.5733 1.69333 15.3624 1.77837 15.1111 1.77778H0.888889Z" fill="black"/>
</svg>
