<svg width="16" height="16" viewBox="0 0 16 16" fill="none" xmlns="http://www.w3.org/2000/svg">
<path d="M0.888889 16C0.637037 16 0.426074 15.9147 0.256 15.744C0.085926 15.5733 0.000592592 15.3624 0 15.1111C0 14.8593 0.0853334 14.6483 0.256 14.4782C0.426667 14.3081 0.63763 14.2228 0.888889 14.2222H15.1111C15.363 14.2222 15.5742 14.3076 15.7449 14.4782C15.9156 14.6489 16.0006 14.8598 16 15.1111C16 15.363 15.9147 15.5742 15.744 15.7449C15.5733 15.9156 15.3624 16.0006 15.1111 16H0.888889ZM0.888889 12.4444C0.637037 12.4444 0.426074 12.3591 0.256 12.1884C0.085926 12.0178 0.000592592 11.8068 0 11.5556C0 11.3037 0.0853334 11.0927 0.256 10.9227C0.426667 10.7526 0.63763 10.6673 0.888889 10.6667H15.1111C15.363 10.6667 15.5742 10.752 15.7449 10.9227C15.9156 11.0933 16.0006 11.3043 16 11.5556C16 11.8074 15.9147 12.0187 15.744 12.1893C15.5733 12.36 15.3624 12.445 15.1111 12.4444H0.888889ZM0.888889 8.88889C0.637037 8.88889 0.426074 8.80355 0.256 8.63289C0.085926 8.46222 0.000592592 8.25126 0 8C0 7.74815 0.0853334 7.53718 0.256 7.36711C0.426667 7.19704 0.63763 7.1117 0.888889 7.11111H15.1111C15.363 7.11111 15.5742 7.19644 15.7449 7.36711C15.9156 7.53778 16.0006 7.74874 16 8C16 8.25185 15.9147 8.46311 15.744 8.63378C15.5733 8.80444 15.3624 8.88948 15.1111 8.88889H0.888889ZM0.888889 5.33333C0.637037 5.33333 0.426074 5.248 0.256 5.07733C0.085926 4.90667 0.000592592 4.6957 0 4.44444C0 4.19259 0.0853334 3.98163 0.256 3.81155C0.426667 3.64148 0.63763 3.55615 0.888889 3.55555H15.1111C15.363 3.55555 15.5742 3.64089 15.7449 3.81155C15.9156 3.98222 16.0006 4.19318 16 4.44444C16 4.6963 15.9147 4.90756 15.744 5.07822C15.5733 5.24889 15.3624 5.33392 15.1111 5.33333H0.888889ZM0.888889 1.77778C0.637037 1.77778 0.426074 1.69244 0.256 1.52178C0.085926 1.35111 0.000592592 1.14015 0 0.888889C0 0.637037 0.0853334 0.426074 0.256 0.256C0.426667 0.085926 0.63763 0.000592592 0.888889 0H15.1111C15.363 0 15.5742 0.0853334 15.7449 0.256C15.9156 0.426667 16.0006 0.63763 16 0.888889C16 1.14074 15.9147 1.352 15.744 1.52267C15.5733 1.69333 15.3624 1.77837 15.1111 1.77778H0.888889Z" fill="black"/>
</svg>
