<svg width="426" height="12" viewBox="0 0 426 12" fill="none" xmlns="http://www.w3.org/2000/svg">
<g clip-path="url(#clip0_1625_6919)">
<rect width="5.68" height="6" fill="#D9D9D9"/>
<rect x="5.67969" width="5.68" height="6" fill="white"/>
<rect x="11.3604" width="5.68" height="6" fill="#D9D9D9"/>
<rect x="17.04" width="5.68" height="6" fill="white"/>
<rect x="22.7197" width="5.68" height="6" fill="#D9D9D9"/>
<rect x="28.4004" width="5.68" height="6" fill="white"/>
<rect x="34.0801" width="5.68" height="6" fill="#D9D9D9"/>
<rect x="39.7598" width="5.68" height="6" fill="white"/>
<rect x="45.4404" width="5.68" height="6" fill="#D9D9D9"/>
<rect x="51.1201" width="5.68" height="6" fill="white"/>
<rect x="56.7998" width="5.68" height="6" fill="#D9D9D9"/>
<rect x="62.4805" width="5.68" height="6" fill="white"/>
<rect x="68.1602" width="5.68" height="6" fill="#D9D9D9"/>
<rect x="73.8398" width="5.68" height="6" fill="white"/>
<rect x="79.5195" width="5.68" height="6" fill="#D9D9D9"/>
<rect x="85.2002" width="5.68" height="6" fill="white"/>
<rect x="90.8799" width="5.68" height="6" fill="#D9D9D9"/>
<rect x="96.5596" width="5.68" height="6" fill="white"/>
<rect x="102.24" width="5.68" height="6" fill="#D9D9D9"/>
<rect x="107.92" width="5.68" height="6" fill="white"/>
<rect x="113.6" width="5.68" height="6" fill="#D9D9D9"/>
<rect x="119.28" width="5.68" height="6" fill="white"/>
<rect x="124.96" width="5.68" height="6" fill="#D9D9D9"/>
<rect x="130.64" width="5.68" height="6" fill="white"/>
<rect x="136.32" width="5.68" height="6" fill="#D9D9D9"/>
<rect x="142" width="5.68" height="6" fill="white"/>
<rect x="147.68" width="5.68" height="6" fill="#D9D9D9"/>
<rect x="153.36" width="5.68" height="6" fill="white"/>
<rect x="159.04" width="5.68" height="6" fill="#D9D9D9"/>
<rect x="164.72" width="5.68" height="6" fill="white"/>
<rect x="170.4" width="5.68" height="6" fill="#D9D9D9"/>
<rect x="176.08" width="5.68" height="6" fill="white"/>
<rect x="181.76" width="5.68" height="6" fill="#D9D9D9"/>
<rect x="187.44" width="5.68" height="6" fill="white"/>
<rect x="193.12" width="5.68" height="6" fill="#D9D9D9"/>
<rect x="198.8" width="5.68" height="6" fill="white"/>
<rect x="204.48" width="5.68" height="6" fill="#D9D9D9"/>
<rect x="210.16" width="5.68" height="6" fill="white"/>
<rect x="215.84" width="5.68" height="6" fill="#D9D9D9"/>
<rect x="221.521" width="5.68" height="6" fill="white"/>
<rect x="227.2" width="5.68" height="6" fill="#D9D9D9"/>
<rect x="232.88" width="5.68" height="6" fill="white"/>
<rect x="238.561" width="5.68" height="6" fill="#D9D9D9"/>
<rect x="244.24" width="5.68" height="6" fill="white"/>
<rect x="249.92" width="5.68" height="6" fill="#D9D9D9"/>
<rect x="255.601" width="5.68" height="6" fill="white"/>
<rect x="261.28" width="5.68" height="6" fill="#D9D9D9"/>
<rect x="266.96" width="5.68" height="6" fill="white"/>
<rect x="272.641" width="5.68" height="6" fill="#D9D9D9"/>
<rect x="278.32" width="5.68" height="6" fill="white"/>
<rect x="284" width="5.68" height="6" fill="#D9D9D9"/>
<rect x="289.68" width="5.68" height="6" fill="white"/>
<rect x="295.36" width="5.68" height="6" fill="#D9D9D9"/>
<rect x="301.04" width="5.68" height="6" fill="white"/>
<rect x="306.72" width="5.68" height="6" fill="#D9D9D9"/>
<rect x="312.4" width="5.68" height="6" fill="white"/>
<rect x="318.08" width="5.68" height="6" fill="#D9D9D9"/>
<rect x="323.76" width="5.68" height="6" fill="white"/>
<rect x="329.44" width="5.68" height="6" fill="#D9D9D9"/>
<rect x="335.12" width="5.68" height="6" fill="white"/>
<rect x="340.8" width="5.68" height="6" fill="#D9D9D9"/>
<rect x="346.48" width="5.68" height="6" fill="white"/>
<rect x="352.16" width="5.68" height="6" fill="#D9D9D9"/>
<rect x="357.84" width="5.68" height="6" fill="white"/>
<rect x="363.521" width="5.68" height="6" fill="#D9D9D9"/>
<rect x="369.2" width="5.68" height="6" fill="white"/>
<rect x="374.88" width="5.68" height="6" fill="#D9D9D9"/>
<rect x="380.56" width="5.68" height="6" fill="white"/>
<rect x="386.24" width="5.68" height="6" fill="#D9D9D9"/>
<rect x="391.92" width="5.68" height="6" fill="white"/>
<rect x="397.6" width="5.68" height="6" fill="#D9D9D9"/>
<rect x="403.28" width="5.68" height="6" fill="white"/>
<rect x="408.96" width="5.68" height="6" fill="#D9D9D9"/>
<rect x="414.64" width="5.68" height="6" fill="white"/>
<rect x="420.32" width="5.68" height="6" fill="#D9D9D9"/>
<rect y="6" width="5.68" height="6" fill="white"/>
<rect x="5.67969" y="6" width="5.68" height="6" fill="#D9D9D9"/>
<rect x="11.3604" y="6" width="5.68" height="6" fill="white"/>
<rect x="17.04" y="6" width="5.68" height="6" fill="#D9D9D9"/>
<rect x="22.7197" y="6" width="5.68" height="6" fill="white"/>
<rect x="28.4004" y="6" width="5.68" height="6" fill="#D9D9D9"/>
<rect x="34.0801" y="6" width="5.68" height="6" fill="white"/>
<rect x="39.7598" y="6" width="5.68" height="6" fill="#D9D9D9"/>
<rect x="45.4404" y="6" width="5.68" height="6" fill="white"/>
<rect x="51.1201" y="6" width="5.68" height="6" fill="#D9D9D9"/>
<rect x="56.7998" y="6" width="5.68" height="6" fill="white"/>
<rect x="62.4805" y="6" width="5.68" height="6" fill="#D9D9D9"/>
<rect x="68.1602" y="6" width="5.68" height="6" fill="white"/>
<rect x="73.8398" y="6" width="5.68" height="6" fill="#D9D9D9"/>
<rect x="79.5195" y="6" width="5.68" height="6" fill="white"/>
<rect x="85.2002" y="6" width="5.68" height="6" fill="#D9D9D9"/>
<rect x="90.8799" y="6" width="5.68" height="6" fill="white"/>
<rect x="96.5596" y="6" width="5.68" height="6" fill="#D9D9D9"/>
<rect x="102.24" y="6" width="5.68" height="6" fill="white"/>
<rect x="107.92" y="6" width="5.68" height="6" fill="#D9D9D9"/>
<rect x="113.6" y="6" width="5.68" height="6" fill="white"/>
<rect x="119.28" y="6" width="5.68" height="6" fill="#D9D9D9"/>
<rect x="124.96" y="6" width="5.68" height="6" fill="white"/>
<rect x="130.64" y="6" width="5.68" height="6" fill="#D9D9D9"/>
<rect x="136.32" y="6" width="5.68" height="6" fill="white"/>
<rect x="142" y="6" width="5.68" height="6" fill="#D9D9D9"/>
<rect x="147.68" y="6" width="5.68" height="6" fill="white"/>
<rect x="153.36" y="6" width="5.68" height="6" fill="#D9D9D9"/>
<rect x="159.04" y="6" width="5.68" height="6" fill="white"/>
<rect x="164.72" y="6" width="5.68" height="6" fill="#D9D9D9"/>
<rect x="170.4" y="6" width="5.68" height="6" fill="white"/>
<rect x="176.08" y="6" width="5.68" height="6" fill="#D9D9D9"/>
<rect x="181.76" y="6" width="5.68" height="6" fill="white"/>
<rect x="187.44" y="6" width="5.68" height="6" fill="#D9D9D9"/>
<rect x="193.12" y="6" width="5.68" height="6" fill="white"/>
<rect x="198.8" y="6" width="5.68" height="6" fill="#D9D9D9"/>
<rect x="204.48" y="6" width="5.68" height="6" fill="white"/>
<rect x="210.16" y="6" width="5.68" height="6" fill="#D9D9D9"/>
<rect x="215.84" y="6" width="5.68" height="6" fill="white"/>
<rect x="221.521" y="6" width="5.68" height="6" fill="#D9D9D9"/>
<rect x="227.2" y="6" width="5.68" height="6" fill="white"/>
<rect x="232.88" y="6" width="5.68" height="6" fill="#D9D9D9"/>
<rect x="238.561" y="6" width="5.68" height="6" fill="white"/>
<rect x="244.24" y="6" width="5.68" height="6" fill="#D9D9D9"/>
<rect x="249.92" y="6" width="5.68" height="6" fill="white"/>
<rect x="255.601" y="6" width="5.68" height="6" fill="#D9D9D9"/>
<rect x="261.28" y="6" width="5.68" height="6" fill="white"/>
<rect x="266.96" y="6" width="5.68" height="6" fill="#D9D9D9"/>
<rect x="272.641" y="6" width="5.68" height="6" fill="white"/>
<rect x="278.32" y="6" width="5.68" height="6" fill="#D9D9D9"/>
<rect x="284" y="6" width="5.68" height="6" fill="white"/>
<rect x="289.68" y="6" width="5.68" height="6" fill="#D9D9D9"/>
<rect x="295.36" y="6" width="5.68" height="6" fill="white"/>
<rect x="301.04" y="6" width="5.68" height="6" fill="#D9D9D9"/>
<rect x="306.72" y="6" width="5.68" height="6" fill="white"/>
<rect x="312.4" y="6" width="5.68" height="6" fill="#D9D9D9"/>
<rect x="318.08" y="6" width="5.68" height="6" fill="white"/>
<rect x="323.76" y="6" width="5.68" height="6" fill="#D9D9D9"/>
<rect x="329.44" y="6" width="5.68" height="6" fill="white"/>
<rect x="335.12" y="6" width="5.68" height="6" fill="#D9D9D9"/>
<rect x="340.8" y="6" width="5.68" height="6" fill="white"/>
<rect x="346.48" y="6" width="5.68" height="6" fill="#D9D9D9"/>
<rect x="352.16" y="6" width="5.68" height="6" fill="white"/>
<rect x="357.84" y="6" width="5.68" height="6" fill="#D9D9D9"/>
<rect x="363.521" y="6" width="5.68" height="6" fill="white"/>
<rect x="369.2" y="6" width="5.68" height="6" fill="#D9D9D9"/>
<rect x="374.88" y="6" width="5.68" height="6" fill="white"/>
<rect x="380.56" y="6" width="5.68" height="6" fill="#D9D9D9"/>
<rect x="386.24" y="6" width="5.68" height="6" fill="white"/>
<rect x="391.92" y="6" width="5.68" height="6" fill="#D9D9D9"/>
<rect x="397.6" y="6" width="5.68" height="6" fill="white"/>
<rect x="403.28" y="6" width="5.68" height="6" fill="#D9D9D9"/>
<rect x="408.96" y="6" width="5.68" height="6" fill="white"/>
<rect x="414.64" y="6" width="5.68" height="6" fill="#D9D9D9"/>
<rect x="420.32" y="6" width="5.68" height="6" fill="white"/>
</g>
<defs>
<clipPath id="clip0_1625_6919">
<rect width="426" height="12" fill="white"/>
</clipPath>
</defs>
</svg>
