<svg width="24" height="23" viewBox="0 0 24 23" fill="none" xmlns="http://www.w3.org/2000/svg">
<path d="M12.0598 22.9809C11.6757 22.9809 11.3514 22.8504 11.087 22.5893C10.8225 22.3282 10.6902 22.0047 10.6902 21.6188V16.6113C10.6902 16.2254 10.8225 15.9019 11.087 15.6408C11.3514 15.3798 11.6757 15.2492 12.0598 15.2492C12.4438 15.2492 12.7669 15.3798 13.0289 15.6408C13.2909 15.9019 13.4219 16.2254 13.4219 16.6113V17.7492H22.0598C22.4457 17.7492 22.7692 17.8798 23.0303 18.1408C23.2913 18.4019 23.4219 18.7254 23.4219 19.1113C23.4219 19.4954 23.2913 19.8197 23.0303 20.0842C22.7692 20.3487 22.4457 20.4809 22.0598 20.4809H13.4219V21.6188C13.4219 22.0047 13.2913 22.3282 13.0303 22.5893C12.7692 22.8504 12.4457 22.9809 12.0598 22.9809ZM1.94022 20.4809C1.55428 20.4809 1.23078 20.3487 0.969719 20.0842C0.708656 19.8197 0.578125 19.4954 0.578125 19.1113C0.578125 18.7273 0.708656 18.4042 0.969719 18.1422C1.23078 17.8802 1.55428 17.7492 1.94022 17.7492H6.94769C7.33362 17.7492 7.65712 17.8798 7.91819 18.1408C8.17925 18.4019 8.30978 18.7254 8.30978 19.1113C8.30978 19.4954 8.17925 19.8197 7.91819 20.0842C7.65712 20.3487 7.33362 20.4809 6.94769 20.4809H1.94022ZM6.94769 15.3613C6.56362 15.3613 6.23935 15.2291 5.97488 14.9646C5.71038 14.7001 5.57812 14.3758 5.57812 13.9918V12.8613H1.94022C1.55428 12.8613 1.23078 12.7308 0.969719 12.4697C0.708656 12.2087 0.578125 11.8852 0.578125 11.4992C0.578125 11.1133 0.708656 10.7898 0.969719 10.5287C1.23078 10.2677 1.55428 10.1371 1.94022 10.1371H5.57812V8.99924C5.57812 8.61332 5.71038 8.28982 5.97488 8.02873C6.23935 7.76767 6.56362 7.63714 6.94769 7.63714C7.33175 7.63714 7.65478 7.76767 7.91678 8.02873C8.17878 8.28982 8.30978 8.61332 8.30978 8.99924V13.9992C8.30978 14.3852 8.17925 14.7087 7.91819 14.9697C7.65712 15.2308 7.33362 15.3613 6.94769 15.3613ZM12.0523 12.8613C11.6664 12.8613 11.3429 12.7308 11.0818 12.4697C10.8208 12.2087 10.6902 11.8852 10.6902 11.4992C10.6902 11.1133 10.8208 10.7898 11.0818 10.5287C11.3429 10.2677 11.6664 10.1371 12.0523 10.1371H22.0598C22.4457 10.1371 22.7692 10.2677 23.0303 10.5287C23.2913 10.7898 23.4219 11.1133 23.4219 11.4992C23.4219 11.8852 23.2913 12.2087 23.0303 12.4697C22.7692 12.7308 22.4457 12.8613 22.0598 12.8613H12.0523ZM17.0598 7.74924C16.6757 7.74924 16.3514 7.6187 16.087 7.35764C15.8225 7.09656 15.6902 6.77306 15.6902 6.38714V1.37967C15.6902 0.993735 15.8225 0.670235 16.087 0.409172C16.3514 0.14811 16.6757 0.0175781 17.0598 0.0175781C17.4438 0.0175781 17.7669 0.14811 18.0289 0.409172C18.2909 0.670235 18.4219 0.993735 18.4219 1.37967V2.51758H22.0598C22.4457 2.51758 22.7692 2.64811 23.0303 2.90917C23.2913 3.17023 23.4219 3.49374 23.4219 3.87967C23.4219 4.26374 23.2913 4.58801 23.0303 4.85249C22.7692 5.11699 22.4457 5.24924 22.0598 5.24924H18.4219V6.38714C18.4219 6.77306 18.2913 7.09656 18.0303 7.35764C17.7692 7.6187 17.4457 7.74924 17.0598 7.74924ZM1.94022 5.24924C1.55428 5.24924 1.23078 5.11699 0.969719 4.85249C0.708656 4.58801 0.578125 4.26374 0.578125 3.87967C0.578125 3.49561 0.708656 3.17258 0.969719 2.91058C1.23078 2.64858 1.55428 2.51758 1.94022 2.51758H11.9477C12.3336 2.51758 12.6571 2.64811 12.9182 2.90917C13.1793 3.17023 13.3098 3.49374 13.3098 3.87967C13.3098 4.26374 13.1793 4.58801 12.9182 4.85249C12.6571 5.11699 12.3336 5.24924 11.9477 5.24924H1.94022Z" fill="#1C1B1F"/>
</svg>
