<svg width="30" height="31" viewBox="0 0 30 31" fill="none" xmlns="http://www.w3.org/2000/svg">
<mask id="mask0_1298_3857" style="mask-type:alpha" maskUnits="userSpaceOnUse" x="0" y="0" width="30" height="31">
<rect y="0.5" width="30" height="30" fill="#D9D9D9"/>
</mask>
<g mask="url(#mask0_1298_3857)">
<path d="M15.0003 20.4992C16.5628 20.4992 17.8909 19.9524 18.9847 18.8586C20.0784 17.7649 20.6253 16.4367 20.6253 14.8742C20.6253 13.3117 20.0784 11.9836 18.9847 10.8899C17.8909 9.79611 16.5628 9.24924 15.0003 9.24924C13.4378 9.24924 12.1097 9.79611 11.0159 10.8899C9.9222 11.9836 9.37532 13.3117 9.37532 14.8742C9.37532 16.4367 9.9222 17.7649 11.0159 18.8586C12.1097 19.9524 13.4378 20.4992 15.0003 20.4992ZM15.0016 18.0923C14.1081 18.0923 13.3481 17.7796 12.7218 17.1541C12.0954 16.5286 11.7823 15.7691 11.7823 14.8755C11.7823 13.982 12.095 13.2221 12.7205 12.5957C13.346 11.9693 14.1055 11.6562 14.999 11.6562C15.8926 11.6562 16.6525 11.9689 17.2789 12.5944C17.9052 13.2199 18.2184 13.9794 18.2184 14.8729C18.2184 15.7665 17.9056 16.5264 17.2802 17.1528C16.6547 17.7791 15.8952 18.0923 15.0016 18.0923ZM15.0003 24.4809C12.1788 24.4809 9.60199 23.7259 7.27001 22.216C4.93805 20.706 3.10041 18.7069 1.7571 16.2187C1.638 16.0063 1.54991 15.7874 1.49285 15.5621C1.43577 15.3368 1.40723 15.1075 1.40723 14.8742C1.40723 14.641 1.43577 14.4117 1.49285 14.1864C1.54991 13.9611 1.638 13.7422 1.7571 13.5298C3.10041 11.0416 4.93805 9.04247 7.27001 7.53252C9.60199 6.02256 12.1788 5.26758 15.0003 5.26758C17.8219 5.26758 20.3987 6.02256 22.7306 7.53252C25.0626 9.04247 26.9002 11.0416 28.2435 13.5298C28.3626 13.7422 28.4507 13.9611 28.5078 14.1864C28.5649 14.4117 28.5934 14.641 28.5934 14.8742C28.5934 15.1075 28.5649 15.3368 28.5078 15.5621C28.4507 15.7874 28.3626 16.0063 28.2435 16.2187C26.9002 18.7069 25.0626 20.706 22.7306 22.216C20.3987 23.7259 17.8219 24.4809 15.0003 24.4809ZM15.001 21.7492C17.3497 21.7492 19.506 21.1282 21.4698 19.8861C23.4335 18.644 24.9362 16.9734 25.9779 14.8742C24.9362 12.775 23.4333 11.1044 21.4691 9.86236C19.5049 8.62028 17.3484 7.99924 14.9997 7.99924C12.6509 7.99924 10.4947 8.62028 8.53088 9.86236C6.56711 11.1044 5.06439 12.775 4.02273 14.8742C5.06439 16.9734 6.56734 18.644 8.53157 19.8861C10.4958 21.1282 12.6522 21.7492 15.001 21.7492Z" fill="#1C1B1F"/>
</g>
</svg>
